<svg xmlns="http://www.w3.org/2000/svg" xmlns:xlink="http://www.w3.org/1999/xlink" width="356.8" height="335.566" viewBox="0 0 356.8 335.566"><defs><style>.a{opacity:0.5;}.b{fill:url(#a);}.c{fill:#fff;}.d{fill:#f39faf;}.e{fill:#e0e0e0;}</style><linearGradient id="a" x1="0.5" y1="1" x2="0.5" gradientUnits="objectBoundingBox"><stop offset="0" stop-color="gray" stop-opacity="0.251"/><stop offset="0.54" stop-color="gray" stop-opacity="0.122"/><stop offset="1" stop-color="gray" stop-opacity="0.102"/></linearGradient></defs><g class="a"><rect class="b" width="221.989" height="335.566" rx="4.5"/></g><rect class="c" width="216.298" height="328.773" rx="4.5" transform="translate(2.847 2.465)"/><rect class="d" width="43.259" height="38.935" rx="4.5" transform="translate(24.477 63.03)"/><rect class="e" width="116.802" height="4.328" rx="2.164" transform="translate(80.714 63.03)"/><rect class="e" width="97.096" height="4.328" rx="2.164" transform="translate(80.714 76.004)"/><rect class="d" width="43.259" height="38.935" rx="4.5" transform="translate(24.477 123.591)"/><rect class="e" width="116.802" height="4.328" rx="2.164" transform="translate(80.714 123.591)"/><rect class="e" width="116.802" height="4.328" rx="2.164" transform="translate(80.714 136.569)"/><rect class="d" width="43.259" height="38.935" rx="4.5" transform="translate(24.477 184.156)"/><rect class="e" width="116.802" height="4.328" rx="2.164" transform="translate(80.714 184.156)"/><rect class="e" width="12.978" height="4.328" rx="2.164" transform="translate(80.714 197.134)"/><g class="a" transform="translate(138.141 108.043)"><rect class="b" width="218.659" height="197.243" rx="4.5"/></g><rect class="c" width="212.274" height="191.049" rx="4.5" transform="translate(141.518 110.022)"/><rect class="d" width="45.607" height="41.049" rx="4.5" transform="translate(162.361 151.067)"/><rect class="e" width="123.144" height="4.562" rx="2.281" transform="translate(221.65 151.067)"/><rect class="e" width="123.144" height="4.562" rx="2.281" transform="translate(221.65 164.749)"/><rect class="e" width="186.994" height="4.562" rx="2.281" transform="translate(157.799 214.414)"/><rect class="e" width="186.994" height="4.562" rx="2.281" transform="translate(157.799 228.096)"/><rect class="e" width="186.994" height="4.562" rx="2.281" transform="translate(157.799 246.34)"/><rect class="e" width="141.387" height="4.562" rx="2.281" transform="translate(157.799 260.021)"/></svg>