<svg xmlns="http://www.w3.org/2000/svg" xmlns:xlink="http://www.w3.org/1999/xlink" width="536.933" height="407" viewBox="0 0 536.933 407"><defs><style>.a,.d,.l{fill:#6988e5;}.a,.g{opacity:0.1;}.b,.e,.k,.l{opacity:0.5;}.c{fill:none;stroke:#535461;stroke-miterlimit:10;stroke-width:2px;}.e,.i{fill:#fff;}.f{fill:#474059;}.h{fill:url(#a);}.j,.k{fill:#c0bccf;}.m{fill:url(#b);}.n{fill:#493545;}.o{fill:#c77485;}.p{fill:#444176;}.q{fill:url(#c);}.r{fill:#f1d2d7;}.s{fill:url(#d);}.t{fill:#53526b;}.u{opacity:0.05;}.v{fill:#5f5d7e;}.w{opacity:0.02;}.x{fill:#e82127;}.y{fill:#d6dbe6;}.z{fill:#fdc2cc;}.aa{fill:#865a61;}.ab{fill:url(#e);}.ac{fill:url(#f);}.ad{fill:#555388;}</style><linearGradient id="a" x1="0.5" y1="1" x2="0.5" gradientUnits="objectBoundingBox"><stop offset="0" stop-color="gray" stop-opacity="0.251"/><stop offset="0.54" stop-color="gray" stop-opacity="0.122"/><stop offset="1" stop-color="gray" stop-opacity="0.102"/></linearGradient><linearGradient id="b" y1="1" y2="0" xlink:href="#a"/><linearGradient id="c" x1="0" y1="0.5" x2="1" y2="0.5" xlink:href="#a"/><linearGradient id="d" x1="2.581" y1="1" x2="2.581" y2="0" xlink:href="#a"/><linearGradient id="e" y1="1" y2="0" xlink:href="#a"/><linearGradient id="f" x1="-25.357" y1="1.001" x2="-25.357" y2="0" xlink:href="#a"/></defs><g transform="translate(0 0.006)"><path class="a" d="M548.041,244.8c-18.877,25.9-12.647,62.876-1.736,92.332,3.655,9.861,7.806,20.29,5.911,31.019-2.314,13.115-13.192,22.942-24.5,28.294-20.613,9.754-44.963,8.2-63.4-4.094-15.912-10.608-27.113-28.236-43.333-38.338-27.147-16.9-62.389-9.349-92.6,3.554C307,366.7,283.59,378.451,262.76,370.023,248.1,364.092,238.232,349,233.039,332.857c-2.507-7.792-4.262-16.249-9.258-22.349a34.176,34.176,0,0,0-10.931-8.265c-36.834-19.287-84.213-7.233-119.923-28.752-24.109-14.533-39.114-42.736-45.349-72.385s-4.692-60.947-2.208-91.71c1.765-21.862,4.557-45.224,17.7-62.4,13.9-18.164,37.2-25.382,58.035-22.537s39.515,14.417,55.856,28.232C197.4,69.92,216.206,91.555,241.626,98.1c17.315,4.455,35.71,1.3,53.71-.092,30.088-2.324,60.07.352,89.869,3.375,28.526,2.893,57.249,6.124,84.266,15.608,19.118,6.712,34.273,19.4,52.273,28.068,11.731,5.651,24.639,6.963,35.681,14.263,13.626,8.993,25.941,24.924,21.944,44.042C575.593,221.536,558.071,231.054,548.041,244.8Z" transform="translate(-43.2 -23.86)"/><g class="b" transform="translate(380.81 172.523)"><path class="c" d="M898.19,580.531s1.591-47.138,27.094-73.773a71.452,71.452,0,0,0,19.6-40.734,120.183,120.183,0,0,0,.6-21.973" transform="translate(-866.742 -413.97)"/><path class="d" d="M1008.486,394.875c-1.745,5.265-16.336,17.358-16.336,17.358s-4.47-18.424-2.724-23.685a10.041,10.041,0,1,1,19.061,6.321Z" transform="translate(-913.777 -381.666)"/><path class="d" d="M1017.145,460.892c-4.34,3.472-23.145,5.7-23.145,5.7s6.268-17.894,10.608-21.361a10.039,10.039,0,1,1,12.537,15.661Z" transform="translate(-916.355 -413.304)"/><path class="d" d="M981.77,561.769c-5.487.81-22.86-6.75-22.86-6.75s14.436-12.286,19.924-13.1a10.041,10.041,0,1,1,2.937,19.866Z" transform="translate(-898.184 -464.594)"/><path class="d" d="M936.365,633.908c-5.27,1.726-23.675-2.806-23.675-2.806s12.156-14.547,17.426-16.274a10.042,10.042,0,0,1,6.268,19.08Z" transform="translate(-874.251 -502.141)"/><path class="d" d="M950.591,464.765c2.56,4.918,18.906,14.547,18.906,14.547s1.485-18.9-1.075-23.82a10.039,10.039,0,0,0-17.812,9.267Z" transform="translate(-893.299 -417.095)"/><path class="d" d="M897.636,546.684c3.915,3.93,22.373,8.231,22.373,8.231s-4.238-18.477-8.149-22.407a10.039,10.039,0,0,0-14.224,14.171Z" transform="translate(-864.94 -458.246)"/><path class="d" d="M860.317,636.79c3.192,4.532,20.661,11.9,20.661,11.9s-1.051-18.926-4.248-23.463a10.039,10.039,0,1,0-16.394,11.572Z" transform="translate(-846.088 -505.442)"/><path class="c" d="M884.779,606.481s-14.465-21.042-11.929-40.841a38.69,38.69,0,0,0-4.571-24.041,65.094,65.094,0,0,0-6.808-9.759" transform="translate(-847.728 -459.429)"/><path class="d" d="M853.253,501.919c.931,2.854-1.528,12.816-1.528,12.816s-7.874-6.586-8.8-9.436a5.435,5.435,0,0,1,10.333-3.375Z" transform="translate(-837.982 -441.997)"/><path class="d" d="M881.648,525.6c-.767,2.893-8.25,9.928-8.25,9.928s-3.028-9.808-2.261-12.71a5.437,5.437,0,1,1,10.512,2.782Z" transform="translate(-852.669 -452.66)"/><path class="d" d="M897.582,579.218c-2.126,2.117-12.132,4.407-12.132,4.407s2.334-10,4.465-12.112a5.438,5.438,0,1,1,7.667,7.715Z" transform="translate(-860.145 -479.154)"/><path class="d" d="M902.235,625.53c-1.741,2.445-11.235,6.384-11.235,6.384s.612-10.246,2.353-12.691a5.436,5.436,0,0,1,8.862,6.3Z" transform="translate(-863.019 -503.493)"/><path class="d" d="M850.566,550.92c2.7,1.321,12.9.26,12.9.26s-5.434-8.708-8.13-10.024a5.434,5.434,0,0,0-4.774,9.764Z" transform="translate(-840.503 -463.966)"/><path class="d" d="M853.869,603.661c2.97.453,12.392-3.612,12.392-3.612s-7.792-6.683-10.757-7.117a5.436,5.436,0,1,0-1.635,10.748Z" transform="translate(-841.4 -491.032)"/><path class="d" d="M866.771,654.96c2.85.964,12.826-1.447,12.826-1.447s-6.548-7.9-9.4-8.853a5.437,5.437,0,1,0-3.428,10.319Z" transform="translate(-848.544 -517.706)"/><path class="e" d="M853.253,501.919c.931,2.854-1.528,12.816-1.528,12.816s-7.874-6.586-8.8-9.436a5.435,5.435,0,0,1,10.333-3.375Z" transform="translate(-837.982 -441.997)"/><path class="e" d="M881.648,525.6c-.767,2.893-8.25,9.928-8.25,9.928s-3.028-9.808-2.261-12.71a5.437,5.437,0,1,1,10.512,2.782Z" transform="translate(-852.669 -452.66)"/><path class="e" d="M897.582,579.218c-2.126,2.117-12.132,4.407-12.132,4.407s2.334-10,4.465-12.112a5.438,5.438,0,1,1,7.667,7.715Z" transform="translate(-860.145 -479.154)"/><path class="e" d="M902.235,625.53c-1.741,2.445-11.235,6.384-11.235,6.384s.612-10.246,2.353-12.691a5.436,5.436,0,0,1,8.862,6.3Z" transform="translate(-863.019 -503.493)"/><path class="e" d="M850.566,550.92c2.7,1.321,12.9.26,12.9.26s-5.434-8.708-8.13-10.024a5.434,5.434,0,0,0-4.774,9.764Z" transform="translate(-840.503 -463.966)"/><path class="e" d="M853.869,603.661c2.97.453,12.392-3.612,12.392-3.612s-7.792-6.683-10.757-7.117a5.436,5.436,0,1,0-1.635,10.748Z" transform="translate(-841.4 -491.032)"/><path class="e" d="M866.771,654.96c2.85.964,12.826-1.447,12.826-1.447s-6.548-7.9-9.4-8.853a5.437,5.437,0,1,0-3.428,10.319Z" transform="translate(-848.544 -517.706)"/><path class="f" d="M800.055,713.726H841.2l10.29-62.746H789.77Z" transform="translate(-789.77 -509.617)"/><path class="g" d="M797.644,650.98l9.61,58.633h34.62l-.675,4.113H800.055L789.77,650.98Z" transform="translate(-789.77 -509.617)"/></g><rect class="h" width="301.844" height="364.19" transform="translate(97.053 18.942)"/><rect class="i" width="294.129" height="354.884" transform="translate(100.91 23.6)"/><rect class="j" width="118.616" height="5.786" transform="translate(215.187 63.62)"/><rect class="j" width="118.616" height="5.786" transform="translate(215.187 81.943)"/><rect class="d" width="61.719" height="5.786" transform="translate(243.635 100.266)"/><rect class="k" width="118.616" height="5.786" transform="translate(215.187 179.826)"/><rect class="k" width="118.616" height="5.786" transform="translate(215.187 198.148)"/><rect class="l" width="61.719" height="5.786" transform="translate(243.635 216.471)"/><rect class="k" width="118.616" height="5.786" transform="translate(215.187 296.031)"/><rect class="k" width="118.616" height="5.786" transform="translate(215.187 314.354)"/><rect class="l" width="61.719" height="5.786" transform="translate(243.635 332.676)"/><g class="b" transform="translate(116.822 168.248)"><path class="j" d="M351.056,405.587a32.634,32.634,0,0,1-7.893,21.336c-.251.294-.511.583-.776.868q-.2.222-.405.434a32.171,32.171,0,0,1-3.5,3.178l-.087.063a32.047,32.047,0,0,1-6.22,3.819h0a32.322,32.322,0,0,1-3.491,1.4l-.439.14c-.27.092-.55.174-.825.251l-.111.034a32.948,32.948,0,0,1-18.106,0h-.048c-.482-.14-.964-.284-1.408-.444l-.41-.145a31.791,31.791,0,0,1-4.532-2.006l-.092-.048a32.915,32.915,0,0,1-6.423-4.547l-.159-.149a30.645,30.645,0,0,1-2.8-2.893c-.116-.13-.227-.265-.337-.4-.212-.251-.415-.511-.617-.771a32.788,32.788,0,1,1,58.681-20.117Z" transform="translate(-285.48 -372.798)"/><path class="m" d="M349.488,424.405,347,423.287a9.866,9.866,0,0,0,.048-1.138,8.948,8.948,0,0,0,0-.964c-.246-2.536-1.861-4.745-3-7.064a20.063,20.063,0,0,1-1.962-6.75c-.3-2.893,0-5.892-1.061-8.612a15.539,15.539,0,0,0-4.4-5.646,22.318,22.318,0,0,0-7.064-4.479,12.492,12.492,0,0,0-8.414-.227,18.155,18.155,0,0,0-6.061,4.378,20.373,20.373,0,0,0-3.423,3.9,16.851,16.851,0,0,0-1.929,5.892,90.132,90.132,0,0,0-1.186,9.846c-.188,2.753-.482,5.878-2.835,7.565-1.148.825-2.763,1.287-3.288,2.536a2.594,2.594,0,0,0-.174,1.181,4.34,4.34,0,0,0,.072,1c.034.193.072.381.121.574a42.31,42.31,0,0,0-1.7,5.15c-.352,1.3-.675,2.58-.964,3.819h1.2l4.494.106h.063l4.822.111h.024l4.494.106h.111l1.3.092h.424l17.971.415h.1l1.2.029h.419l3.6.082h0l5.3.121h.039l3.992.1h1.244l-.212-4.185C351.228,424.805,349.488,424.405,349.488,424.405Zm-20.189-.511c0,3.549-3.8,7.893-3.8,7.893l-3.824-5.208.14-.2,3.684,5.015s3.8-4.34,3.8-7.893a4.176,4.176,0,0,1,.3-.521l.087.27A5.117,5.117,0,0,0,329.3,423.894Zm5.844,13.925a2.9,2.9,0,0,0-.034-.54c-.034-.178-.029-.338-.053-.511s-.043-.342-.068-.516-.058-.342-.092-.516-.068-.342-.106-.516a.808.808,0,0,0-.039-.174q-.08-.34-.174-.68c-.063-.227-.1-.366-.159-.545a.741.741,0,0,0-.077-.241c-.029-.077-.082-.26-.125-.391l-.087-.251c-.039-.111-.077-.227-.121-.338-.072-.2-.149-.4-.227-.6s-.159-.4-.241-.6c-.164-.405-.342-.805-.521-1.21-.7-1.562-1.485-3.1-2.208-4.624a24.579,24.579,0,0,1-1.032-2.449l-.092.12a5.114,5.114,0,0,0-.391.651c0,3.549-3.8,7.893-3.8,7.893l-3.824-5.208-3.346,4.822a3.9,3.9,0,0,0-1.34,2.228c-.106.313-.207.661-.3,1.022-.067.246-.13.482-.188.757-.034.13-.063.26-.092.4l-.087.41v.063c-.058.28-.116.569-.169.863s-.116.632-.169.964q-.058.313-.1.622c-.068.4-.125.805-.183,1.21-.034.236-.068.482-.1.7l-.116.9c.246.738.521,1.447.805,2.189a3.444,3.444,0,0,1,.313,1.239,35.141,35.141,0,0,0,18.106,0,.166.166,0,0,1,0-.043,5.035,5.035,0,0,1-.116-1.23h0a31.767,31.767,0,0,1,.482-3.452,11.8,11.8,0,0,0,.092-1.7v-.2c-.014-.183-.019-.347-.024-.506Zm0,0a2.9,2.9,0,0,0-.034-.54c-.034-.178-.029-.338-.053-.511s-.043-.342-.068-.516-.058-.342-.092-.516-.068-.342-.106-.516a.808.808,0,0,0-.039-.174q-.08-.34-.174-.68c-.063-.227-.1-.366-.159-.545a.741.741,0,0,0-.077-.241c-.029-.077-.082-.26-.125-.391l-.087-.251c-.039-.111-.077-.227-.121-.338-.072-.2-.149-.4-.227-.6s-.159-.4-.241-.6c-.164-.405-.342-.805-.521-1.21-.7-1.562-1.485-3.1-2.208-4.624a24.579,24.579,0,0,1-1.032-2.449l-.092.12a5.114,5.114,0,0,0-.391.651c0,3.549-3.8,7.893-3.8,7.893l-3.824-5.208-3.346,4.822a3.9,3.9,0,0,0-1.34,2.228c-.106.313-.207.661-.3,1.022-.067.246-.13.482-.188.757-.034.13-.063.26-.092.4l-.087.41v.063c-.058.28-.116.569-.169.863s-.116.632-.169.964q-.058.313-.1.622c-.068.4-.125.805-.183,1.21-.034.236-.068.482-.1.7l-.116.9c.246.738.521,1.447.805,2.189a3.444,3.444,0,0,1,.313,1.239,35.141,35.141,0,0,0,18.106,0,.166.166,0,0,1,0-.043,5.035,5.035,0,0,1-.116-1.23h0a31.767,31.767,0,0,1,.482-3.452,11.8,11.8,0,0,0,.092-1.7v-.2c-.014-.183-.019-.347-.024-.506Zm0,0a2.9,2.9,0,0,0-.034-.54c-.034-.178-.029-.338-.053-.511s-.043-.342-.068-.516-.058-.342-.092-.516-.068-.342-.106-.516a.808.808,0,0,0-.039-.174q-.08-.34-.174-.68c-.063-.227-.1-.366-.159-.545a.741.741,0,0,0-.077-.241c-.029-.077-.082-.26-.125-.391l-.087-.251c-.039-.111-.077-.227-.121-.338-.072-.2-.149-.4-.227-.6s-.159-.4-.241-.6c-.164-.405-.342-.805-.521-1.21-.7-1.562-1.485-3.1-2.208-4.624a24.579,24.579,0,0,1-1.032-2.449l-.092.12a5.114,5.114,0,0,0-.391.651c0,3.549-3.8,7.893-3.8,7.893l-3.824-5.208-3.346,4.822a3.9,3.9,0,0,0-1.34,2.228c-.106.313-.207.661-.3,1.022-.067.246-.13.482-.188.757-.034.13-.063.26-.092.4l-.087.41v.063c-.058.28-.116.569-.169.863s-.116.632-.169.964q-.058.313-.1.622c-.068.4-.125.805-.183,1.21-.034.236-.068.482-.1.7l-.116.9c.246.738.521,1.447.805,2.189a3.444,3.444,0,0,1,.313,1.239,35.141,35.141,0,0,0,18.106,0,.166.166,0,0,1,0-.043,5.035,5.035,0,0,1-.116-1.23h0a31.767,31.767,0,0,1,.482-3.452,11.8,11.8,0,0,0,.092-1.7v-.2c-.014-.183-.019-.347-.024-.506Zm0,0a2.9,2.9,0,0,0-.034-.54c-.034-.178-.029-.338-.053-.511s-.043-.342-.068-.516-.058-.342-.092-.516-.068-.342-.106-.516a.808.808,0,0,0-.039-.174q-.08-.34-.174-.68c-.063-.227-.1-.366-.159-.545a.741.741,0,0,0-.077-.241c-.029-.077-.082-.26-.125-.391l-.087-.251c-.039-.111-.077-.227-.121-.338-.072-.2-.149-.4-.227-.6s-.159-.4-.241-.6c-.164-.405-.342-.805-.521-1.21-.7-1.562-1.485-3.1-2.208-4.624a24.579,24.579,0,0,1-1.032-2.449l-.092.12a5.114,5.114,0,0,0-.391.651c0,3.549-3.8,7.893-3.8,7.893l-3.824-5.208-3.346,4.822a3.9,3.9,0,0,0-1.34,2.228c-.106.313-.207.661-.3,1.022-.067.246-.13.482-.188.757-.034.13-.063.26-.092.4l-.087.41v.063c-.058.28-.116.569-.169.863s-.116.632-.169.964q-.058.313-.1.622c-.068.4-.125.805-.183,1.21-.034.236-.068.482-.1.7l-.116.9c.246.738.521,1.447.805,2.189a3.444,3.444,0,0,1,.313,1.239,35.141,35.141,0,0,0,18.106,0,.166.166,0,0,1,0-.043,5.035,5.035,0,0,1-.116-1.23h0a31.767,31.767,0,0,1,.482-3.452,11.8,11.8,0,0,0,.092-1.7v-.2c-.014-.183-.019-.347-.024-.506Z" transform="translate(-292.885 -380.555)"/><rect class="n" width="22.18" height="14.948" transform="translate(20.252 23.633)"/><path class="o" d="M353.087,441.056l-9.282,13.077-9.7-.844s-12.657.839-4.219-8.858c4.055-4.663,5.381-8.549,5.666-11.322a8.767,8.767,0,0,0-.6-4.706l10.545-1.263a7.869,7.869,0,0,0-.174,4.4C346.641,437.02,353.087,441.056,353.087,441.056Z" transform="translate(-306.972 -400.937)"/><path class="g" d="M353.862,431.517a10.541,10.541,0,0,1-9.769,1.572,8.767,8.767,0,0,0-.6-4.706l10.545-1.263a7.869,7.869,0,0,0-.174,4.4Z" transform="translate(-315.519 -400.927)"/><circle class="o" cx="10.545" cy="10.545" r="10.545" transform="translate(21.438 11.216)"/><path class="g" d="M349.717,452.769l-.246-.964-.212-.849-.313-1.254-.058-.231-.048-.193s.251-.757-1.4-.511l-.309.053c-.26.053-.564.125-.911.222l-.313.1-.415.13h0a9.042,9.042,0,0,0-3.5,2.112,7.883,7.883,0,0,0-1.172,1.418c-.034.048-.058.092-.087.13a4.555,4.555,0,0,0-.3.559c0,3.8-3.8,8.438-3.8,8.438l-3.708-5.357-.072-.106-.882-1.283-.313-.415-.106-.145-1.929-2.589-.482-.646-.159-.217-.236-.313-.554-.738-2.17,1.268-2.893,1.688-1.688,10.97v.3l.053.906.352,5.96v.082l-.617,2.469.092.048a31.8,31.8,0,0,0,4.533,2.006l.41.145c.482.159.935.3,1.408.444a1.709,1.709,0,0,1,.039.217v-.207a32.947,32.947,0,0,0,18.106,0l.111-.034c.275-.077.554-.159.824-.251l.439-.14a32.3,32.3,0,0,0,3.491-1.4l.405-8.631.289-6.225v-.357Z" transform="translate(-303.987 -412.111)"/><path class="i" d="M346.359,469.261a3.33,3.33,0,0,0-.034-.579c-.034-.193-.029-.362-.053-.545s-.043-.366-.068-.55-.058-.366-.092-.55-.068-.366-.106-.55a.828.828,0,0,0-.039-.183c-.053-.241-.111-.482-.174-.728s-.1-.391-.159-.583a.822.822,0,0,0-.077-.256c-.029-.082-.082-.28-.125-.42l-.087-.27c-.039-.121-.077-.241-.121-.362-.072-.217-.149-.429-.227-.646s-.159-.429-.241-.641c-.164-.434-.342-.863-.521-1.292-.7-1.668-1.485-3.313-2.208-4.942A27.32,27.32,0,0,1,341,453.547l-.092.13a5.571,5.571,0,0,0-.391.694c0,3.795-3.8,8.438-3.8,8.438l-3.824-5.569-3.346,5.145a4.2,4.2,0,0,0-1.341,2.382c-.106.338-.207.7-.3,1.095-.068.26-.13.535-.188.81-.034.14-.063.28-.092.424l-.087.439v.068c-.058.3-.116.608-.169.921s-.116.675-.169,1.017q-.058.333-.1.665c-.068.429-.125.863-.183,1.292-.034.251-.068.482-.1.747l-.116.964c.246.791.521,1.572.805,2.339a3.887,3.887,0,0,1,.313,1.326,32.947,32.947,0,0,0,18.106,0,.188.188,0,0,1,0-.048,5.745,5.745,0,0,1-.116-1.316h0a36.173,36.173,0,0,1,.482-3.689,13.5,13.5,0,0,0,.092-1.813v-.217C346.369,469.608,346.364,469.434,346.359,469.261Zm0,0a3.33,3.33,0,0,0-.034-.579c-.034-.193-.029-.362-.053-.545s-.043-.366-.068-.55-.058-.366-.092-.55-.068-.366-.106-.55a.828.828,0,0,0-.039-.183c-.053-.241-.111-.482-.174-.728s-.1-.391-.159-.583a.822.822,0,0,0-.077-.256c-.029-.082-.082-.28-.125-.42l-.087-.27c-.039-.121-.077-.241-.121-.362-.072-.217-.149-.429-.227-.646s-.159-.429-.241-.641c-.164-.434-.342-.863-.521-1.292-.7-1.668-1.485-3.313-2.208-4.942A27.32,27.32,0,0,1,341,453.547l-.092.13a5.571,5.571,0,0,0-.391.694c0,3.795-3.8,8.438-3.8,8.438l-3.824-5.569-3.346,5.145a4.2,4.2,0,0,0-1.341,2.382c-.106.338-.207.7-.3,1.095-.068.26-.13.535-.188.81-.034.14-.063.28-.092.424l-.087.439v.068c-.058.3-.116.608-.169.921s-.116.675-.169,1.017q-.058.333-.1.665c-.068.429-.125.863-.183,1.292-.034.251-.068.482-.1.747l-.116.964c.246.791.521,1.572.805,2.339a3.887,3.887,0,0,1,.313,1.326,32.947,32.947,0,0,0,18.106,0,.188.188,0,0,1,0-.048,5.745,5.745,0,0,1-.116-1.316h0a36.173,36.173,0,0,1,.482-3.689,13.5,13.5,0,0,0,.092-1.813v-.217C346.369,469.608,346.364,469.434,346.359,469.261Zm0,0a3.33,3.33,0,0,0-.034-.579c-.034-.193-.029-.362-.053-.545s-.043-.366-.068-.55-.058-.366-.092-.55-.068-.366-.106-.55a.828.828,0,0,0-.039-.183c-.053-.241-.111-.482-.174-.728s-.1-.391-.159-.583a.822.822,0,0,0-.077-.256c-.029-.082-.082-.28-.125-.42l-.087-.27c-.039-.121-.077-.241-.121-.362-.072-.217-.149-.429-.227-.646s-.159-.429-.241-.641c-.164-.434-.342-.863-.521-1.292-.7-1.668-1.485-3.313-2.208-4.942A27.32,27.32,0,0,1,341,453.547l-.092.13a5.571,5.571,0,0,0-.391.694c0,3.795-3.8,8.438-3.8,8.438l-3.824-5.569-3.346,5.145a4.2,4.2,0,0,0-1.341,2.382c-.106.338-.207.7-.3,1.095-.068.26-.13.535-.188.81-.034.14-.063.28-.092.424l-.087.439v.068c-.058.3-.116.608-.169.921s-.116.675-.169,1.017q-.058.333-.1.665c-.068.429-.125.863-.183,1.292-.034.251-.068.482-.1.747l-.116.964c.246.791.521,1.572.805,2.339a3.887,3.887,0,0,1,.313,1.326,32.947,32.947,0,0,0,18.106,0,.188.188,0,0,1,0-.048,5.745,5.745,0,0,1-.116-1.316h0a36.173,36.173,0,0,1,.482-3.689,13.5,13.5,0,0,0,.092-1.813v-.217C346.369,469.608,346.364,469.434,346.359,469.261Zm5.111-9.051-1.721-6.871-.294-1.177-.082-.323h0l-.419-1.678a.321.321,0,0,0,0-.043h0a.386.386,0,0,0-.034-.217c-.063-.125-.222-.256-.593-.289a2.992,2.992,0,0,0-.424,0h0a7.344,7.344,0,0,0-1.239.231c-.2.053-.41.111-.636.183l-.415.13h-.039a9.2,9.2,0,0,0-3.038,1.688,8.2,8.2,0,0,0-1.543,1.707l-.092.13a5.578,5.578,0,0,0-.391.694c0,3.795-3.8,8.438-3.8,8.438l-3.824-5.569-.217-.313-.039-.053-.555-.815-.42-.559-.111-.145-1.977-2.638h0l-.627-.853v-.029l-.217-.294-.415-.55-1.447.844-3.616,2.107L321.58,464.8v.116l.048.791.357,6.042v.342l-.545,2.175a31.8,31.8,0,0,0,4.532,2.006l.41.145c.482.159.935.3,1.408.444a1.7,1.7,0,0,1,.039.217v-.207a32.948,32.948,0,0,0,18.106,0l.111-.034c.275-.077.555-.159.825-.251l.439-.14a32.307,32.307,0,0,0,3.491-1.4h0l.4-8.621.289-6.157Zm-23.714,16.65a1.709,1.709,0,0,1,.039.217v-.207Zm18.6-7.6a3.33,3.33,0,0,0-.034-.579c-.034-.193-.029-.362-.053-.545s-.043-.366-.068-.55-.058-.366-.092-.55-.068-.366-.106-.55a.828.828,0,0,0-.039-.183c-.053-.241-.111-.482-.174-.728s-.1-.391-.159-.583a.822.822,0,0,0-.077-.256c-.029-.082-.082-.28-.125-.42l-.087-.27c-.039-.121-.077-.241-.121-.362-.072-.217-.149-.429-.227-.646s-.159-.429-.241-.641c-.164-.434-.342-.863-.521-1.292-.7-1.668-1.485-3.313-2.208-4.942A27.32,27.32,0,0,1,341,453.547l-.092.13a5.571,5.571,0,0,0-.391.694c0,3.795-3.8,8.438-3.8,8.438l-3.824-5.569-3.346,5.145a4.2,4.2,0,0,0-1.341,2.382c-.106.338-.207.7-.3,1.095-.068.26-.13.535-.188.81-.034.14-.063.28-.092.424l-.087.439v.068c-.058.3-.116.608-.169.921s-.116.675-.169,1.017q-.058.333-.1.665c-.068.429-.125.863-.183,1.292-.034.251-.068.482-.1.747l-.116.964c.246.791.521,1.572.805,2.339a3.887,3.887,0,0,1,.313,1.326,32.947,32.947,0,0,0,18.106,0,.188.188,0,0,1,0-.048,5.745,5.745,0,0,1-.116-1.316h0a36.173,36.173,0,0,1,.482-3.689,13.5,13.5,0,0,0,.092-1.813v-.217C346.369,469.608,346.364,469.434,346.359,469.261Zm0,0a3.33,3.33,0,0,0-.034-.579c-.034-.193-.029-.362-.053-.545s-.043-.366-.068-.55-.058-.366-.092-.55-.068-.366-.106-.55a.828.828,0,0,0-.039-.183c-.053-.241-.111-.482-.174-.728s-.1-.391-.159-.583a.822.822,0,0,0-.077-.256c-.029-.082-.082-.28-.125-.42l-.087-.27c-.039-.121-.077-.241-.121-.362-.072-.217-.149-.429-.227-.646s-.159-.429-.241-.641c-.164-.434-.342-.863-.521-1.292-.7-1.668-1.485-3.313-2.208-4.942A27.32,27.32,0,0,1,341,453.547l-.092.13a5.571,5.571,0,0,0-.391.694c0,3.795-3.8,8.438-3.8,8.438l-3.824-5.569-3.346,5.145a4.2,4.2,0,0,0-1.341,2.382c-.106.338-.207.7-.3,1.095-.068.26-.13.535-.188.81-.034.14-.063.28-.092.424l-.087.439v.068c-.058.3-.116.608-.169.921s-.116.675-.169,1.017q-.058.333-.1.665c-.068.429-.125.863-.183,1.292-.034.251-.068.482-.1.747l-.116.964c.246.791.521,1.572.805,2.339a3.887,3.887,0,0,1,.313,1.326,32.947,32.947,0,0,0,18.106,0,.188.188,0,0,1,0-.048,5.745,5.745,0,0,1-.116-1.316h0a36.173,36.173,0,0,1,.482-3.689,13.5,13.5,0,0,0,.092-1.813v-.217C346.369,469.608,346.364,469.434,346.359,469.261Zm0,0a3.33,3.33,0,0,0-.034-.579c-.034-.193-.029-.362-.053-.545s-.043-.366-.068-.55-.058-.366-.092-.55-.068-.366-.106-.55a.828.828,0,0,0-.039-.183c-.053-.241-.111-.482-.174-.728s-.1-.391-.159-.583a.822.822,0,0,0-.077-.256c-.029-.082-.082-.28-.125-.42l-.087-.27c-.039-.121-.077-.241-.121-.362-.072-.217-.149-.429-.227-.646s-.159-.429-.241-.641c-.164-.434-.342-.863-.521-1.292-.7-1.668-1.485-3.313-2.208-4.942A27.32,27.32,0,0,1,341,453.547l-.092.13a5.571,5.571,0,0,0-.391.694c0,3.795-3.8,8.438-3.8,8.438l-3.824-5.569-3.346,5.145a4.2,4.2,0,0,0-1.341,2.382c-.106.338-.207.7-.3,1.095-.068.26-.13.535-.188.81-.034.14-.063.28-.092.424l-.087.439v.068c-.058.3-.116.608-.169.921s-.116.675-.169,1.017q-.058.333-.1.665c-.068.429-.125.863-.183,1.292-.034.251-.068.482-.1.747l-.116.964c.246.791.521,1.572.805,2.339a3.887,3.887,0,0,1,.313,1.326,32.947,32.947,0,0,0,18.106,0,.188.188,0,0,1,0-.048,5.745,5.745,0,0,1-.116-1.316h0a36.173,36.173,0,0,1,.482-3.689,13.5,13.5,0,0,0,.092-1.813v-.217C346.369,469.608,346.364,469.434,346.359,469.261Zm0,0a3.33,3.33,0,0,0-.034-.579c-.034-.193-.029-.362-.053-.545s-.043-.366-.068-.55-.058-.366-.092-.55-.068-.366-.106-.55a.828.828,0,0,0-.039-.183c-.053-.241-.111-.482-.174-.728s-.1-.391-.159-.583a.822.822,0,0,0-.077-.256c-.029-.082-.082-.28-.125-.42l-.087-.27c-.039-.121-.077-.241-.121-.362-.072-.217-.149-.429-.227-.646s-.159-.429-.241-.641c-.164-.434-.342-.863-.521-1.292-.7-1.668-1.485-3.313-2.208-4.942A27.32,27.32,0,0,1,341,453.547l-.092.13a5.571,5.571,0,0,0-.391.694c0,3.795-3.8,8.438-3.8,8.438l-3.824-5.569-3.346,5.145a4.2,4.2,0,0,0-1.341,2.382c-.106.338-.207.7-.3,1.095-.068.26-.13.535-.188.81-.034.14-.063.28-.092.424l-.087.439v.068c-.058.3-.116.608-.169.921s-.116.675-.169,1.017q-.058.333-.1.665c-.068.429-.125.863-.183,1.292-.034.251-.068.482-.1.747l-.116.964c.246.791.521,1.572.805,2.339a3.887,3.887,0,0,1,.313,1.326,32.947,32.947,0,0,0,18.106,0,.188.188,0,0,1,0-.048,5.745,5.745,0,0,1-.116-1.316h0a36.173,36.173,0,0,1,.482-3.689,13.5,13.5,0,0,0,.092-1.813v-.217C346.369,469.608,346.364,469.434,346.359,469.261Zm0,0a3.33,3.33,0,0,0-.034-.579c-.034-.193-.029-.362-.053-.545s-.043-.366-.068-.55-.058-.366-.092-.55-.068-.366-.106-.55a.828.828,0,0,0-.039-.183c-.053-.241-.111-.482-.174-.728s-.1-.391-.159-.583a.822.822,0,0,0-.077-.256c-.029-.082-.082-.28-.125-.42l-.087-.27c-.039-.121-.077-.241-.121-.362-.072-.217-.149-.429-.227-.646s-.159-.429-.241-.641c-.164-.434-.342-.863-.521-1.292-.7-1.668-1.485-3.313-2.208-4.942A27.32,27.32,0,0,1,341,453.547l-.092.13a5.571,5.571,0,0,0-.391.694c0,3.795-3.8,8.438-3.8,8.438l-3.824-5.569-3.346,5.145a4.2,4.2,0,0,0-1.341,2.382c-.106.338-.207.7-.3,1.095-.068.26-.13.535-.188.81-.034.14-.063.28-.092.424l-.087.439v.068c-.058.3-.116.608-.169.921s-.116.675-.169,1.017q-.058.333-.1.665c-.068.429-.125.863-.183,1.292-.034.251-.068.482-.1.747l-.116.964c.246.791.521,1.572.805,2.339a3.887,3.887,0,0,1,.313,1.326,32.947,32.947,0,0,0,18.106,0,.188.188,0,0,1,0-.048,5.745,5.745,0,0,1-.116-1.316h0a36.173,36.173,0,0,1,.482-3.689,13.5,13.5,0,0,0,.092-1.813v-.217C346.369,469.608,346.364,469.434,346.359,469.261Zm0,0a3.33,3.33,0,0,0-.034-.579c-.034-.193-.029-.362-.053-.545s-.043-.366-.068-.55-.058-.366-.092-.55-.068-.366-.106-.55a.828.828,0,0,0-.039-.183c-.053-.241-.111-.482-.174-.728s-.1-.391-.159-.583a.822.822,0,0,0-.077-.256c-.029-.082-.082-.28-.125-.42l-.087-.27c-.039-.121-.077-.241-.121-.362-.072-.217-.149-.429-.227-.646s-.159-.429-.241-.641c-.164-.434-.342-.863-.521-1.292-.7-1.668-1.485-3.313-2.208-4.942A27.32,27.32,0,0,1,341,453.547l-.092.13a5.571,5.571,0,0,0-.391.694c0,3.795-3.8,8.438-3.8,8.438l-3.824-5.569-3.346,5.145a4.2,4.2,0,0,0-1.341,2.382c-.106.338-.207.7-.3,1.095-.068.26-.13.535-.188.81-.034.14-.063.28-.092.424l-.087.439v.068c-.058.3-.116.608-.169.921s-.116.675-.169,1.017q-.058.333-.1.665c-.068.429-.125.863-.183,1.292-.034.251-.068.482-.1.747l-.116.964c.246.791.521,1.572.805,2.339a3.887,3.887,0,0,1,.313,1.326,32.947,32.947,0,0,0,18.106,0,.188.188,0,0,1,0-.048,5.745,5.745,0,0,1-.116-1.316h0a36.173,36.173,0,0,1,.482-3.689,13.5,13.5,0,0,0,.092-1.813v-.217C346.369,469.608,346.364,469.434,346.359,469.261Zm0,0a3.33,3.33,0,0,0-.034-.579c-.034-.193-.029-.362-.053-.545s-.043-.366-.068-.55-.058-.366-.092-.55-.068-.366-.106-.55a.828.828,0,0,0-.039-.183c-.053-.241-.111-.482-.174-.728s-.1-.391-.159-.583a.822.822,0,0,0-.077-.256c-.029-.082-.082-.28-.125-.42l-.087-.27c-.039-.121-.077-.241-.121-.362-.072-.217-.149-.429-.227-.646s-.159-.429-.241-.641c-.164-.434-.342-.863-.521-1.292-.7-1.668-1.485-3.313-2.208-4.942A27.32,27.32,0,0,1,341,453.547l-.092.13a5.571,5.571,0,0,0-.391.694c0,3.795-3.8,8.438-3.8,8.438l-3.824-5.569-3.346,5.145a4.2,4.2,0,0,0-1.341,2.382c-.106.338-.207.7-.3,1.095-.068.26-.13.535-.188.81-.034.14-.063.28-.092.424l-.087.439v.068c-.058.3-.116.608-.169.921s-.116.675-.169,1.017q-.058.333-.1.665c-.068.429-.125.863-.183,1.292-.034.251-.068.482-.1.747l-.116.964c.246.791.521,1.572.805,2.339a3.887,3.887,0,0,1,.313,1.326,32.947,32.947,0,0,0,18.106,0,.188.188,0,0,1,0-.048,5.745,5.745,0,0,1-.116-1.316h0a36.173,36.173,0,0,1,.482-3.689,13.5,13.5,0,0,0,.092-1.813v-.217C346.369,469.608,346.364,469.434,346.359,469.261Zm0,0a3.33,3.33,0,0,0-.034-.579c-.034-.193-.029-.362-.053-.545s-.043-.366-.068-.55-.058-.366-.092-.55-.068-.366-.106-.55a.828.828,0,0,0-.039-.183c-.053-.241-.111-.482-.174-.728s-.1-.391-.159-.583a.822.822,0,0,0-.077-.256c-.029-.082-.082-.28-.125-.42l-.087-.27c-.039-.121-.077-.241-.121-.362-.072-.217-.149-.429-.227-.646s-.159-.429-.241-.641c-.164-.434-.342-.863-.521-1.292-.7-1.668-1.485-3.313-2.208-4.942A27.32,27.32,0,0,1,341,453.547l-.092.13a5.571,5.571,0,0,0-.391.694c0,3.795-3.8,8.438-3.8,8.438l-3.824-5.569-3.346,5.145a4.2,4.2,0,0,0-1.341,2.382c-.106.338-.207.7-.3,1.095-.068.26-.13.535-.188.81-.034.14-.063.28-.092.424l-.087.439v.068c-.058.3-.116.608-.169.921s-.116.675-.169,1.017q-.058.333-.1.665c-.068.429-.125.863-.183,1.292-.034.251-.068.482-.1.747l-.116.964c.246.791.521,1.572.805,2.339a3.887,3.887,0,0,1,.313,1.326,32.947,32.947,0,0,0,18.106,0,.188.188,0,0,1,0-.048,5.745,5.745,0,0,1-.116-1.316h0a36.173,36.173,0,0,1,.482-3.689,13.5,13.5,0,0,0,.092-1.813v-.217C346.369,469.608,346.364,469.434,346.359,469.261Z" transform="translate(-304.101 -412.57)"/><path class="g" d="M322.748,457.049l-.323-.043a11.747,11.747,0,0,1-1.447-.289l-.178-.048c-1.177-.333-2.464-.931-2.753-1.982a1.876,1.876,0,0,1,.029-1.027,8.8,8.8,0,0,1,.656-1.659v-.029a2.3,2.3,0,0,1,.121-.217,4.822,4.822,0,0,1,1.741-1.895l-.579.092-4.9.8-7.594,1.225s-1.35-.27-3.187,4.793a.783.783,0,0,1-.063.188c-.444,1.239-.911,2.787-1.393,4.721-.333,1.34-.636,2.657-.916,3.935-.082.386-.164.767-.241,1.143a30.636,30.636,0,0,0,2.8,2.893l.159.149a32.91,32.91,0,0,0,6.423,4.547l.092.048a31.786,31.786,0,0,0,4.533,2.006l.41.145c.087-.892.183-1.88.3-2.893a.824.824,0,0,1,.039-.3l.116-.964c.029-.246.063-.482.1-.747.058-.429.116-.863.183-1.292q.043-.333.1-.665c.053-.342.111-.685.169-1.017s.111-.622.169-.921v-.068l.087-.439c.029-.145.058-.284.092-.424.058-.275.121-.55.188-.81.1-.391.2-.757.3-1.095a4.121,4.121,0,0,1,1.34-2.382l3.346-5.145.14-.217.063-.1Z" transform="translate(-293.889 -412.702)"/><path class="p" d="M322.1,457.069l-3.554,5.458a4.077,4.077,0,0,0-1.316,2.31c-.111.357-.222.747-.328,1.157a57.66,57.66,0,0,0-1.09,6.312.749.749,0,0,1-.039.289c-.164,1.341-.3,2.657-.41,3.819a31.8,31.8,0,0,1-4.533-2.006l-.092-.048a32.912,32.912,0,0,1-6.423-4.547l-.159-.149a30.644,30.644,0,0,1-2.8-2.893c-.116-.13-.227-.265-.337-.4.053-.251.106-.482.164-.752.275-1.278.579-2.589.911-3.925a47.5,47.5,0,0,1,1.639-5.4,1.479,1.479,0,0,1,.063-.154c1.707-4.393,2.936-4.147,2.936-4.147l8.019-1.292,5.063-.82-.159.092a5.135,5.135,0,0,0-1.394,1.485l-.14.236c-.058.092-.111.193-.169.294a8.546,8.546,0,0,0-.665,1.688,1.774,1.774,0,0,0,.116,1.379c.482.935,1.852,1.447,2.975,1.726l.188.048A12.092,12.092,0,0,0,322.1,457.069Z" transform="translate(-293.527 -412.713)"/><path class="g" d="M386.467,465.494l-.2-4.282c.844-6.751-.844-7.17-.844-7.17l-2.006-.964h-.053l-8.067-3.91-.313-.154-.1-.043h0l-1.051-.511h0l-.665-.323-1.244-.6-.419-.2V449c0,.482.043,1.046.082,1.7.087,1.649.246,3.857.53,6.461.159,1.509.362,3.158.612,4.928.149,1.046.256,2.088.323,3.105a54.648,54.648,0,0,1-.318,10.27l.439-.14a32.3,32.3,0,0,0,3.491-1.4h0a32.047,32.047,0,0,0,6.22-3.819l.087-.063a32.168,32.168,0,0,0,3.5-3.178Z" transform="translate(-330.028 -411.392)"/><path class="p" d="M387.337,465.468l-.2-4.291c.844-6.751-.844-7.17-.844-7.17l-2.411-1.167h-.048l-8.091-3.925-.371-.178-.072-.034-.593-.289-.786-.381-1.553-.752v.685h0v.849c0,.482.043,1.114.087,1.832.082,1.538.227,3.554.482,5.95.174,1.644.391,3.472.675,5.439q.222,1.577.318,3.12a54.577,54.577,0,0,1-.3,10.126,32.307,32.307,0,0,0,3.491-1.4h0a32.041,32.041,0,0,0,6.22-3.819l.087-.063a32.165,32.165,0,0,0,3.5-3.178q.212-.212.405-.434Z" transform="translate(-330.473 -411.366)"/><path class="g" d="M324.016,392.127a7.014,7.014,0,0,0-.661,2.411c-.516,1.885-2.56,3.067-3.028,4.966-.275,1.109.043,2.286-.145,3.414-.342,2.078-2.242,3.486-3.3,5.3a7.156,7.156,0,0,0-.439,6.22,9.974,9.974,0,0,1,.612,1.572,5.743,5.743,0,0,1-.15,2.411c-.362,1.717-.733,3.607.1,5.155a4.933,4.933,0,0,0,3.612,2.314,14.036,14.036,0,0,0,4.422-.2,12.793,12.793,0,0,0,4.619-1.35l-5.222-12.6a10.521,10.521,0,0,1-1.061-3.968,8.721,8.721,0,0,1,.651-2.961,25.651,25.651,0,0,1,4.34-7.5c.757.878.7,2.213,1.331,3.187a5.029,5.029,0,0,0,2.151,1.606,71.254,71.254,0,0,0,7.614,3.182,1,1,0,0,1,.743,1.485l-1.967,8.12c-.434,1.789-.815,3.857.3,5.3s3.626,2.131,3.64,4a6.391,6.391,0,0,0,0,.887c.13.873,1.167,1.292,2.049,1.336a6.109,6.109,0,0,0,6.129-5c.482-3.192-1.63-6.133-2.512-9.243-1.485-5.232.482-11.37-2.435-15.965-2.363-3.727-6.669-4.74-10.757-5.2C331.774,390.666,326.036,389.46,324.016,392.127Z" transform="translate(-301.247 -381.932)"/><path class="n" d="M324.016,391.127a7.014,7.014,0,0,0-.661,2.411c-.516,1.885-2.56,3.067-3.028,4.966-.275,1.109.043,2.286-.145,3.414-.342,2.078-2.242,3.486-3.3,5.3a7.156,7.156,0,0,0-.439,6.22,9.974,9.974,0,0,1,.612,1.572,5.743,5.743,0,0,1-.15,2.411c-.362,1.717-.733,3.607.1,5.154a4.933,4.933,0,0,0,3.612,2.314,14.037,14.037,0,0,0,4.422-.2,12.792,12.792,0,0,0,4.619-1.35l-5.222-12.6a10.521,10.521,0,0,1-1.061-3.968,8.721,8.721,0,0,1,.651-2.961,25.652,25.652,0,0,1,4.34-7.5c.757.878.7,2.213,1.331,3.187a5.029,5.029,0,0,0,2.151,1.606,71.241,71.241,0,0,0,7.614,3.182,1,1,0,0,1,.743,1.485l-1.967,8.12c-.434,1.789-.815,3.857.3,5.3s3.626,2.131,3.64,4a6.391,6.391,0,0,0,0,.887c.13.873,1.167,1.292,2.049,1.336a6.109,6.109,0,0,0,6.129-5c.482-3.192-1.63-6.133-2.512-9.243-1.485-5.232.482-11.37-2.435-15.965-2.363-3.727-6.669-4.74-10.757-5.2C331.774,389.666,326.036,388.46,324.016,391.127Z" transform="translate(-301.247 -381.415)"/></g><g class="b" transform="translate(116.822 284.453)"><path class="j" d="M351.056,646.587a32.634,32.634,0,0,1-7.893,21.336c-.251.294-.511.583-.776.868q-.2.222-.405.434a32.168,32.168,0,0,1-3.5,3.177l-.087.063a32.042,32.042,0,0,1-6.22,3.819h0a32.31,32.31,0,0,1-3.491,1.4l-.439.14c-.27.092-.55.174-.825.251l-.111.034a32.947,32.947,0,0,1-18.106,0h-.048c-.482-.14-.964-.285-1.408-.444l-.41-.145a31.8,31.8,0,0,1-4.532-2.006l-.092-.048a32.911,32.911,0,0,1-6.423-4.547l-.159-.15a30.64,30.64,0,0,1-2.8-2.893c-.116-.13-.227-.265-.337-.4-.212-.251-.415-.511-.617-.771a32.788,32.788,0,1,1,58.681-20.117Z" transform="translate(-285.48 -613.798)"/><path class="q" d="M350.38,674.464l-.2-4.34c.844-6.861-.844-7.291-.844-7.291l-2.411-1.186-.048-.024-8.091-3.988-.371-.183-.048-.2s.159-.482-.641-.564a2.936,2.936,0,0,1-.2-1.23,5.272,5.272,0,0,1,1.326-2.411,9.9,9.9,0,0,0,1.586-7.025,16.524,16.524,0,0,0-2.691-6.789l-.154-.227a8.169,8.169,0,0,0,.284-2.131c0-5.55-5.613-10.049-12.537-10.049-6.268,0-11.49,3.708-12.4,8.544a4.4,4.4,0,0,0-.381.6c-1.273,2.382.694,4.161.757,6.538.043,1.639-1.056,3.043-1.929,4.431s-1.519,3.235-.622,4.6c.294.453.738.8,1,1.268.931,1.644-.617,3.53-1.181,5.333a5.1,5.1,0,0,0-.154.641l-3.722.607s-1.23-.251-2.936,4.214a1.509,1.509,0,0,0-.063.159,48.887,48.887,0,0,0-1.639,5.492q-.5,2.04-.911,3.988c-.058.256-.111.511-.164.767.111.135.222.275.338.4a30.933,30.933,0,0,0,2.8,2.951l.159.154a32.92,32.92,0,0,0,6.423,4.624l.092.048a31.547,31.547,0,0,0,4.532,2.04l.41.145c.482.164.935.309,1.408.453a1.761,1.761,0,0,1,.039.222v-.212a32.431,32.431,0,0,0,18.106,0l.111-.034c.275-.077.555-.164.825-.256l.439-.14a32.517,32.517,0,0,0,9.711-5.3l.087-.063a32.368,32.368,0,0,0,3.5-3.231q.212-.212.405-.439Z" transform="translate(-293.517 -620.546)"/><path class="p" d="M323.347,651.947c.043,1.615-1.056,2.994-1.929,4.34s-1.519,3.182-.622,4.528c.294.443.738.786,1,1.249.931,1.615-.617,3.472-1.181,5.246a6.586,6.586,0,0,0,1.475,6,15.974,15.974,0,0,0,5.169,3.775,46.133,46.133,0,0,0,12.787,4.552,12.243,12.243,0,0,0,7.011-.313,7.454,7.454,0,0,0,4.209-8.2c-.554-2.536-2.411-4.576-3.375-6.972a3.264,3.264,0,0,1-.318-1.509,5.1,5.1,0,0,1,1.326-2.363,9.643,9.643,0,0,0,1.562-6.861,16.1,16.1,0,0,0-2.691-6.683,7.32,7.32,0,0,0-1.929-2.122,8.461,8.461,0,0,0-3.607-1.09C337,644.8,331.578,644,326.3,643.726c-1.668-.087-2.893.241-3.718,1.8C321.322,647.859,323.285,649.609,323.347,651.947Z" transform="translate(-303.544 -629.289)"/><path class="o" d="M356.218,680.984l-9.938,14.133-9.7-.844s-.318,3.375-4.219-8.858c-2.179-6.842,2.252-4.465,3.125-6.36s2.411-3.568,2.541-4.966a8.767,8.767,0,0,0-.6-4.706l10.545-1.263a7.869,7.869,0,0,0-.174,4.4C349.115,678.009,356.218,680.984,356.218,680.984Z" transform="translate(-309.446 -641.927)"/><ellipse class="p" cx="12.537" cy="9.885" rx="12.537" ry="9.885" transform="translate(19.287 7.238)"/><path class="g" d="M353.862,672.517a10.54,10.54,0,0,1-9.769,1.572,8.767,8.767,0,0,0-.6-4.706l10.545-1.263a7.869,7.869,0,0,0-.174,4.4Z" transform="translate(-315.519 -641.927)"/><circle class="o" cx="10.545" cy="10.545" r="10.545" transform="translate(21.438 11.216)"/><path class="g" d="M349.717,693.769l-.246-.964-.212-.849-.313-1.254-.058-.231-.048-.193s.251-.757-1.4-.511l-.309.053c-.26.053-.564.125-.911.222l-.313.1-.415.13h0a9.042,9.042,0,0,0-3.5,2.112,7.884,7.884,0,0,0-1.172,1.418c-.034.048-.058.092-.087.13a4.554,4.554,0,0,0-.3.559c0,3.8-3.8,8.438-3.8,8.438l-3.708-5.357-.072-.106-.882-1.283-.313-.415-.106-.145-1.929-2.589-.482-.646-.159-.217-.236-.313-.554-.738-2.17,1.268-2.893,1.688-1.688,10.97v.3l.053.906.352,5.96v.082l-.617,2.469.092.048a31.789,31.789,0,0,0,4.533,2.006l.41.145c.482.159.935.3,1.408.444a1.7,1.7,0,0,1,.039.217v-.207a32.948,32.948,0,0,0,18.106,0l.111-.034c.275-.077.554-.159.824-.251l.439-.14a32.3,32.3,0,0,0,3.491-1.4l.405-8.631.289-6.225v-.357Z" transform="translate(-303.987 -653.111)"/><path class="p" d="M346.359,710.261a3.33,3.33,0,0,0-.034-.579c-.034-.193-.029-.362-.053-.545s-.043-.366-.068-.55-.058-.366-.092-.55-.068-.366-.106-.55a.829.829,0,0,0-.039-.183c-.053-.241-.111-.482-.174-.728s-.1-.391-.159-.583a.823.823,0,0,0-.077-.256c-.029-.082-.082-.28-.125-.419l-.087-.27c-.039-.121-.077-.241-.121-.362-.072-.217-.149-.429-.227-.646s-.159-.429-.241-.641c-.164-.434-.342-.863-.521-1.292-.7-1.668-1.485-3.313-2.208-4.942A27.311,27.311,0,0,1,341,694.546l-.092.13a5.572,5.572,0,0,0-.391.694c0,3.795-3.8,8.438-3.8,8.438l-3.824-5.569-3.346,5.145a4.2,4.2,0,0,0-1.341,2.382c-.106.338-.207.7-.3,1.095-.068.26-.13.535-.188.81-.034.14-.063.28-.092.424l-.087.439v.067c-.058.3-.116.608-.169.921s-.116.675-.169,1.017q-.058.333-.1.665c-.068.429-.125.863-.183,1.292-.034.251-.068.482-.1.747l-.116.964c.246.791.521,1.572.805,2.339a3.886,3.886,0,0,1,.313,1.326,32.947,32.947,0,0,0,18.106,0,.188.188,0,0,1,0-.048,5.745,5.745,0,0,1-.116-1.316h0a36.161,36.161,0,0,1,.482-3.689,13.508,13.508,0,0,0,.092-1.813v-.217C346.369,710.608,346.364,710.434,346.359,710.261Zm0,0a3.33,3.33,0,0,0-.034-.579c-.034-.193-.029-.362-.053-.545s-.043-.366-.068-.55-.058-.366-.092-.55-.068-.366-.106-.55a.829.829,0,0,0-.039-.183c-.053-.241-.111-.482-.174-.728s-.1-.391-.159-.583a.823.823,0,0,0-.077-.256c-.029-.082-.082-.28-.125-.419l-.087-.27c-.039-.121-.077-.241-.121-.362-.072-.217-.149-.429-.227-.646s-.159-.429-.241-.641c-.164-.434-.342-.863-.521-1.292-.7-1.668-1.485-3.313-2.208-4.942A27.311,27.311,0,0,1,341,694.546l-.092.13a5.572,5.572,0,0,0-.391.694c0,3.795-3.8,8.438-3.8,8.438l-3.824-5.569-3.346,5.145a4.2,4.2,0,0,0-1.341,2.382c-.106.338-.207.7-.3,1.095-.068.26-.13.535-.188.81-.034.14-.063.28-.092.424l-.087.439v.067c-.058.3-.116.608-.169.921s-.116.675-.169,1.017q-.058.333-.1.665c-.068.429-.125.863-.183,1.292-.034.251-.068.482-.1.747l-.116.964c.246.791.521,1.572.805,2.339a3.886,3.886,0,0,1,.313,1.326,32.947,32.947,0,0,0,18.106,0,.188.188,0,0,1,0-.048,5.745,5.745,0,0,1-.116-1.316h0a36.161,36.161,0,0,1,.482-3.689,13.508,13.508,0,0,0,.092-1.813v-.217C346.369,710.608,346.364,710.434,346.359,710.261Zm0,0a3.33,3.33,0,0,0-.034-.579c-.034-.193-.029-.362-.053-.545s-.043-.366-.068-.55-.058-.366-.092-.55-.068-.366-.106-.55a.829.829,0,0,0-.039-.183c-.053-.241-.111-.482-.174-.728s-.1-.391-.159-.583a.823.823,0,0,0-.077-.256c-.029-.082-.082-.28-.125-.419l-.087-.27c-.039-.121-.077-.241-.121-.362-.072-.217-.149-.429-.227-.646s-.159-.429-.241-.641c-.164-.434-.342-.863-.521-1.292-.7-1.668-1.485-3.313-2.208-4.942A27.311,27.311,0,0,1,341,694.546l-.092.13a5.572,5.572,0,0,0-.391.694c0,3.795-3.8,8.438-3.8,8.438l-3.824-5.569-3.346,5.145a4.2,4.2,0,0,0-1.341,2.382c-.106.338-.207.7-.3,1.095-.068.26-.13.535-.188.81-.034.14-.063.28-.092.424l-.087.439v.067c-.058.3-.116.608-.169.921s-.116.675-.169,1.017q-.058.333-.1.665c-.068.429-.125.863-.183,1.292-.034.251-.068.482-.1.747l-.116.964c.246.791.521,1.572.805,2.339a3.886,3.886,0,0,1,.313,1.326,32.947,32.947,0,0,0,18.106,0,.188.188,0,0,1,0-.048,5.745,5.745,0,0,1-.116-1.316h0a36.161,36.161,0,0,1,.482-3.689,13.508,13.508,0,0,0,.092-1.813v-.217C346.369,710.608,346.364,710.434,346.359,710.261Zm5.111-9.05-1.721-6.871-.294-1.177-.082-.323h0l-.419-1.678a.321.321,0,0,0,0-.043h0a.386.386,0,0,0-.034-.217c-.063-.125-.222-.256-.593-.289a3.011,3.011,0,0,0-.424,0h0a7.344,7.344,0,0,0-1.239.232c-.2.053-.41.111-.636.183l-.415.13h-.039a9.2,9.2,0,0,0-3.038,1.688,8.2,8.2,0,0,0-1.543,1.707l-.092.13a5.568,5.568,0,0,0-.391.694c0,3.795-3.8,8.438-3.8,8.438l-3.824-5.569-.217-.313-.039-.053-.555-.815-.42-.559-.111-.145-1.977-2.638h0l-.627-.854v-.029l-.217-.294-.415-.55-1.447.844-3.616,2.107L321.58,705.8v.116l.048.791.357,6.042v.342l-.545,2.175a31.8,31.8,0,0,0,4.532,2.006l.41.145c.482.159.935.3,1.408.444a1.7,1.7,0,0,1,.039.217v-.207a32.947,32.947,0,0,0,18.106,0l.111-.034c.275-.077.555-.159.825-.251l.439-.14a32.32,32.32,0,0,0,3.491-1.4h0l.4-8.621.289-6.157Zm-23.714,16.65a1.709,1.709,0,0,1,.039.217v-.207Zm18.6-7.6a3.33,3.33,0,0,0-.034-.579c-.034-.193-.029-.362-.053-.545s-.043-.366-.068-.55-.058-.366-.092-.55-.068-.366-.106-.55a.829.829,0,0,0-.039-.183c-.053-.241-.111-.482-.174-.728s-.1-.391-.159-.583a.823.823,0,0,0-.077-.256c-.029-.082-.082-.28-.125-.419l-.087-.27c-.039-.121-.077-.241-.121-.362-.072-.217-.149-.429-.227-.646s-.159-.429-.241-.641c-.164-.434-.342-.863-.521-1.292-.7-1.668-1.485-3.313-2.208-4.942A27.311,27.311,0,0,1,341,694.546l-.092.13a5.572,5.572,0,0,0-.391.694c0,3.795-3.8,8.438-3.8,8.438l-3.824-5.569-3.346,5.145a4.2,4.2,0,0,0-1.341,2.382c-.106.338-.207.7-.3,1.095-.068.26-.13.535-.188.81-.034.14-.063.28-.092.424l-.087.439v.067c-.058.3-.116.608-.169.921s-.116.675-.169,1.017q-.058.333-.1.665c-.068.429-.125.863-.183,1.292-.034.251-.068.482-.1.747l-.116.964c.246.791.521,1.572.805,2.339a3.886,3.886,0,0,1,.313,1.326,32.947,32.947,0,0,0,18.106,0,.188.188,0,0,1,0-.048,5.745,5.745,0,0,1-.116-1.316h0a36.161,36.161,0,0,1,.482-3.689,13.508,13.508,0,0,0,.092-1.813v-.217C346.369,710.608,346.364,710.434,346.359,710.261Zm0,0a3.33,3.33,0,0,0-.034-.579c-.034-.193-.029-.362-.053-.545s-.043-.366-.068-.55-.058-.366-.092-.55-.068-.366-.106-.55a.829.829,0,0,0-.039-.183c-.053-.241-.111-.482-.174-.728s-.1-.391-.159-.583a.823.823,0,0,0-.077-.256c-.029-.082-.082-.28-.125-.419l-.087-.27c-.039-.121-.077-.241-.121-.362-.072-.217-.149-.429-.227-.646s-.159-.429-.241-.641c-.164-.434-.342-.863-.521-1.292-.7-1.668-1.485-3.313-2.208-4.942A27.311,27.311,0,0,1,341,694.546l-.092.13a5.572,5.572,0,0,0-.391.694c0,3.795-3.8,8.438-3.8,8.438l-3.824-5.569-3.346,5.145a4.2,4.2,0,0,0-1.341,2.382c-.106.338-.207.7-.3,1.095-.068.26-.13.535-.188.81-.034.14-.063.28-.092.424l-.087.439v.067c-.058.3-.116.608-.169.921s-.116.675-.169,1.017q-.058.333-.1.665c-.068.429-.125.863-.183,1.292-.034.251-.068.482-.1.747l-.116.964c.246.791.521,1.572.805,2.339a3.886,3.886,0,0,1,.313,1.326,32.947,32.947,0,0,0,18.106,0,.188.188,0,0,1,0-.048,5.745,5.745,0,0,1-.116-1.316h0a36.161,36.161,0,0,1,.482-3.689,13.508,13.508,0,0,0,.092-1.813v-.217C346.369,710.608,346.364,710.434,346.359,710.261Zm0,0a3.33,3.33,0,0,0-.034-.579c-.034-.193-.029-.362-.053-.545s-.043-.366-.068-.55-.058-.366-.092-.55-.068-.366-.106-.55a.829.829,0,0,0-.039-.183c-.053-.241-.111-.482-.174-.728s-.1-.391-.159-.583a.823.823,0,0,0-.077-.256c-.029-.082-.082-.28-.125-.419l-.087-.27c-.039-.121-.077-.241-.121-.362-.072-.217-.149-.429-.227-.646s-.159-.429-.241-.641c-.164-.434-.342-.863-.521-1.292-.7-1.668-1.485-3.313-2.208-4.942A27.311,27.311,0,0,1,341,694.546l-.092.13a5.572,5.572,0,0,0-.391.694c0,3.795-3.8,8.438-3.8,8.438l-3.824-5.569-3.346,5.145a4.2,4.2,0,0,0-1.341,2.382c-.106.338-.207.7-.3,1.095-.068.26-.13.535-.188.81-.034.14-.063.28-.092.424l-.087.439v.067c-.058.3-.116.608-.169.921s-.116.675-.169,1.017q-.058.333-.1.665c-.068.429-.125.863-.183,1.292-.034.251-.068.482-.1.747l-.116.964c.246.791.521,1.572.805,2.339a3.886,3.886,0,0,1,.313,1.326,32.947,32.947,0,0,0,18.106,0,.188.188,0,0,1,0-.048,5.745,5.745,0,0,1-.116-1.316h0a36.161,36.161,0,0,1,.482-3.689,13.508,13.508,0,0,0,.092-1.813v-.217C346.369,710.608,346.364,710.434,346.359,710.261Zm0,0a3.33,3.33,0,0,0-.034-.579c-.034-.193-.029-.362-.053-.545s-.043-.366-.068-.55-.058-.366-.092-.55-.068-.366-.106-.55a.829.829,0,0,0-.039-.183c-.053-.241-.111-.482-.174-.728s-.1-.391-.159-.583a.823.823,0,0,0-.077-.256c-.029-.082-.082-.28-.125-.419l-.087-.27c-.039-.121-.077-.241-.121-.362-.072-.217-.149-.429-.227-.646s-.159-.429-.241-.641c-.164-.434-.342-.863-.521-1.292-.7-1.668-1.485-3.313-2.208-4.942A27.311,27.311,0,0,1,341,694.546l-.092.13a5.572,5.572,0,0,0-.391.694c0,3.795-3.8,8.438-3.8,8.438l-3.824-5.569-3.346,5.145a4.2,4.2,0,0,0-1.341,2.382c-.106.338-.207.7-.3,1.095-.068.26-.13.535-.188.81-.034.14-.063.28-.092.424l-.087.439v.067c-.058.3-.116.608-.169.921s-.116.675-.169,1.017q-.058.333-.1.665c-.068.429-.125.863-.183,1.292-.034.251-.068.482-.1.747l-.116.964c.246.791.521,1.572.805,2.339a3.886,3.886,0,0,1,.313,1.326,32.947,32.947,0,0,0,18.106,0,.188.188,0,0,1,0-.048,5.745,5.745,0,0,1-.116-1.316h0a36.161,36.161,0,0,1,.482-3.689,13.508,13.508,0,0,0,.092-1.813v-.217C346.369,710.608,346.364,710.434,346.359,710.261Zm0,0a3.33,3.33,0,0,0-.034-.579c-.034-.193-.029-.362-.053-.545s-.043-.366-.068-.55-.058-.366-.092-.55-.068-.366-.106-.55a.829.829,0,0,0-.039-.183c-.053-.241-.111-.482-.174-.728s-.1-.391-.159-.583a.823.823,0,0,0-.077-.256c-.029-.082-.082-.28-.125-.419l-.087-.27c-.039-.121-.077-.241-.121-.362-.072-.217-.149-.429-.227-.646s-.159-.429-.241-.641c-.164-.434-.342-.863-.521-1.292-.7-1.668-1.485-3.313-2.208-4.942A27.311,27.311,0,0,1,341,694.546l-.092.13a5.572,5.572,0,0,0-.391.694c0,3.795-3.8,8.438-3.8,8.438l-3.824-5.569-3.346,5.145a4.2,4.2,0,0,0-1.341,2.382c-.106.338-.207.7-.3,1.095-.068.26-.13.535-.188.81-.034.14-.063.28-.092.424l-.087.439v.067c-.058.3-.116.608-.169.921s-.116.675-.169,1.017q-.058.333-.1.665c-.068.429-.125.863-.183,1.292-.034.251-.068.482-.1.747l-.116.964c.246.791.521,1.572.805,2.339a3.886,3.886,0,0,1,.313,1.326,32.947,32.947,0,0,0,18.106,0,.188.188,0,0,1,0-.048,5.745,5.745,0,0,1-.116-1.316h0a36.161,36.161,0,0,1,.482-3.689,13.508,13.508,0,0,0,.092-1.813v-.217C346.369,710.608,346.364,710.434,346.359,710.261Zm0,0a3.33,3.33,0,0,0-.034-.579c-.034-.193-.029-.362-.053-.545s-.043-.366-.068-.55-.058-.366-.092-.55-.068-.366-.106-.55a.829.829,0,0,0-.039-.183c-.053-.241-.111-.482-.174-.728s-.1-.391-.159-.583a.823.823,0,0,0-.077-.256c-.029-.082-.082-.28-.125-.419l-.087-.27c-.039-.121-.077-.241-.121-.362-.072-.217-.149-.429-.227-.646s-.159-.429-.241-.641c-.164-.434-.342-.863-.521-1.292-.7-1.668-1.485-3.313-2.208-4.942A27.311,27.311,0,0,1,341,694.546l-.092.13a5.572,5.572,0,0,0-.391.694c0,3.795-3.8,8.438-3.8,8.438l-3.824-5.569-3.346,5.145a4.2,4.2,0,0,0-1.341,2.382c-.106.338-.207.7-.3,1.095-.068.26-.13.535-.188.81-.034.14-.063.28-.092.424l-.087.439v.067c-.058.3-.116.608-.169.921s-.116.675-.169,1.017q-.058.333-.1.665c-.068.429-.125.863-.183,1.292-.034.251-.068.482-.1.747l-.116.964c.246.791.521,1.572.805,2.339a3.886,3.886,0,0,1,.313,1.326,32.947,32.947,0,0,0,18.106,0,.188.188,0,0,1,0-.048,5.745,5.745,0,0,1-.116-1.316h0a36.161,36.161,0,0,1,.482-3.689,13.508,13.508,0,0,0,.092-1.813v-.217C346.369,710.608,346.364,710.434,346.359,710.261Zm0,0a3.33,3.33,0,0,0-.034-.579c-.034-.193-.029-.362-.053-.545s-.043-.366-.068-.55-.058-.366-.092-.55-.068-.366-.106-.55a.829.829,0,0,0-.039-.183c-.053-.241-.111-.482-.174-.728s-.1-.391-.159-.583a.823.823,0,0,0-.077-.256c-.029-.082-.082-.28-.125-.419l-.087-.27c-.039-.121-.077-.241-.121-.362-.072-.217-.149-.429-.227-.646s-.159-.429-.241-.641c-.164-.434-.342-.863-.521-1.292-.7-1.668-1.485-3.313-2.208-4.942A27.311,27.311,0,0,1,341,694.546l-.092.13a5.572,5.572,0,0,0-.391.694c0,3.795-3.8,8.438-3.8,8.438l-3.824-5.569-3.346,5.145a4.2,4.2,0,0,0-1.341,2.382c-.106.338-.207.7-.3,1.095-.068.26-.13.535-.188.81-.034.14-.063.28-.092.424l-.087.439v.067c-.058.3-.116.608-.169.921s-.116.675-.169,1.017q-.058.333-.1.665c-.068.429-.125.863-.183,1.292-.034.251-.068.482-.1.747l-.116.964c.246.791.521,1.572.805,2.339a3.886,3.886,0,0,1,.313,1.326,32.947,32.947,0,0,0,18.106,0,.188.188,0,0,1,0-.048,5.745,5.745,0,0,1-.116-1.316h0a36.161,36.161,0,0,1,.482-3.689,13.508,13.508,0,0,0,.092-1.813v-.217C346.369,710.608,346.364,710.434,346.359,710.261Zm0,0a3.33,3.33,0,0,0-.034-.579c-.034-.193-.029-.362-.053-.545s-.043-.366-.068-.55-.058-.366-.092-.55-.068-.366-.106-.55a.829.829,0,0,0-.039-.183c-.053-.241-.111-.482-.174-.728s-.1-.391-.159-.583a.823.823,0,0,0-.077-.256c-.029-.082-.082-.28-.125-.419l-.087-.27c-.039-.121-.077-.241-.121-.362-.072-.217-.149-.429-.227-.646s-.159-.429-.241-.641c-.164-.434-.342-.863-.521-1.292-.7-1.668-1.485-3.313-2.208-4.942A27.311,27.311,0,0,1,341,694.546l-.092.13a5.572,5.572,0,0,0-.391.694c0,3.795-3.8,8.438-3.8,8.438l-3.824-5.569-3.346,5.145a4.2,4.2,0,0,0-1.341,2.382c-.106.338-.207.7-.3,1.095-.068.26-.13.535-.188.81-.034.14-.063.28-.092.424l-.087.439v.067c-.058.3-.116.608-.169.921s-.116.675-.169,1.017q-.058.333-.1.665c-.068.429-.125.863-.183,1.292-.034.251-.068.482-.1.747l-.116.964c.246.791.521,1.572.805,2.339a3.886,3.886,0,0,1,.313,1.326,32.947,32.947,0,0,0,18.106,0,.188.188,0,0,1,0-.048,5.745,5.745,0,0,1-.116-1.316h0a36.161,36.161,0,0,1,.482-3.689,13.508,13.508,0,0,0,.092-1.813v-.217C346.369,710.608,346.364,710.434,346.359,710.261Z" transform="translate(-304.101 -653.57)"/><path class="g" d="M322.748,698.049l-.323-.043a11.736,11.736,0,0,1-1.447-.289l-.178-.048c-1.177-.333-2.464-.931-2.753-1.982a1.876,1.876,0,0,1,.029-1.027,8.8,8.8,0,0,1,.656-1.659v-.029a2.292,2.292,0,0,1,.121-.217,4.822,4.822,0,0,1,1.741-1.9l-.579.092-4.9.8-7.594,1.225s-1.35-.27-3.187,4.793a.784.784,0,0,1-.063.188c-.444,1.239-.911,2.787-1.393,4.72-.333,1.34-.636,2.657-.916,3.935-.082.386-.164.767-.241,1.143a30.629,30.629,0,0,0,2.8,2.893l.159.15a32.91,32.91,0,0,0,6.423,4.547l.092.048a31.786,31.786,0,0,0,4.533,2.006l.41.145c.087-.892.183-1.881.3-2.893a.824.824,0,0,1,.039-.3l.116-.964c.029-.246.063-.482.1-.747.058-.429.116-.863.183-1.292q.043-.333.1-.666c.053-.342.111-.685.169-1.017s.111-.622.169-.921v-.068l.087-.439c.029-.145.058-.284.092-.424.058-.275.121-.55.188-.81.1-.391.2-.757.3-1.094a4.121,4.121,0,0,1,1.34-2.382l3.346-5.145.14-.217.063-.1Z" transform="translate(-293.889 -653.702)"/><path class="r" d="M322.1,698.069l-3.554,5.458a4.077,4.077,0,0,0-1.316,2.31c-.111.357-.222.747-.328,1.157a57.66,57.66,0,0,0-1.09,6.312.75.75,0,0,1-.039.289c-.164,1.34-.3,2.657-.41,3.819a31.8,31.8,0,0,1-4.533-2.006l-.092-.048a32.911,32.911,0,0,1-6.423-4.547l-.159-.149a30.638,30.638,0,0,1-2.8-2.893c-.116-.13-.227-.265-.337-.4.053-.251.106-.482.164-.752.275-1.278.579-2.589.911-3.925a47.51,47.51,0,0,1,1.639-5.4,1.471,1.471,0,0,1,.063-.154c1.707-4.393,2.936-4.147,2.936-4.147l8.019-1.292,5.063-.82-.159.092a5.136,5.136,0,0,0-1.394,1.485l-.14.236c-.058.092-.111.193-.169.294a8.544,8.544,0,0,0-.665,1.688,1.775,1.775,0,0,0,.116,1.379c.482.935,1.852,1.446,2.975,1.726l.188.048A12.092,12.092,0,0,0,322.1,698.069Z" transform="translate(-293.527 -653.713)"/><path class="g" d="M386.467,706.494l-.2-4.282c.844-6.751-.844-7.17-.844-7.17l-2.006-.964h-.053l-8.067-3.91-.313-.154-.1-.043h0l-1.051-.511h0l-.665-.323-1.244-.6-.419-.2V690c0,.482.043,1.046.082,1.7.087,1.649.246,3.857.53,6.461.159,1.509.362,3.158.612,4.928.149,1.046.256,2.088.323,3.105a54.647,54.647,0,0,1-.318,10.27l.439-.14a32.307,32.307,0,0,0,3.491-1.4h0a32.048,32.048,0,0,0,6.22-3.819l.087-.063a32.173,32.173,0,0,0,3.5-3.177Z" transform="translate(-330.028 -652.392)"/><path class="r" d="M387.337,706.468l-.2-4.291c.844-6.75-.844-7.17-.844-7.17l-2.411-1.167h-.048l-8.091-3.925-.371-.178-.072-.034-.593-.289-.786-.381-1.553-.752v.685h0v.849c0,.482.043,1.114.087,1.832.082,1.538.227,3.554.482,5.95.174,1.644.391,3.472.675,5.439q.222,1.577.318,3.12a54.578,54.578,0,0,1-.3,10.126,32.654,32.654,0,0,0,9.711-5.217l.087-.063a32.165,32.165,0,0,0,3.5-3.178q.212-.212.405-.434Z" transform="translate(-330.473 -652.366)"/><path class="g" d="M338,643.094c1.5-.256,3.018-.805,4.513-.482a14.779,14.779,0,0,1,3.448,1.673,8.925,8.925,0,0,0,3.558.94,2.092,2.092,0,0,0,1.307-.256,2.026,2.026,0,0,0,.583-1.987,11.405,11.405,0,0,0-2.893-5.42,10.607,10.607,0,0,0-1.813-1.837,9.576,9.576,0,0,0-6.167-1.4,15.451,15.451,0,0,0-7.064,1.813c-1.447.829-4.764,3.443-3.612,5.333C331.074,643.451,336.108,643.418,338,643.094Z" transform="translate(-308.339 -624.419)"/><path class="p" d="M338,642.094c1.5-.256,3.018-.805,4.513-.482a14.781,14.781,0,0,1,3.448,1.673,8.925,8.925,0,0,0,3.558.94,2.093,2.093,0,0,0,1.307-.256,2.026,2.026,0,0,0,.583-1.987,11.406,11.406,0,0,0-2.893-5.42,10.61,10.61,0,0,0-1.813-1.837,9.576,9.576,0,0,0-6.167-1.4,15.452,15.452,0,0,0-7.064,1.813c-1.447.829-4.764,3.443-3.612,5.333C331.074,642.451,336.108,642.417,338,642.094Z" transform="translate(-308.339 -623.901)"/></g><path class="s" d="M620.331,458.781h.072c.106,3.231.564,6.153,1.447,6.963,2.1,1.929,10.82-1.929,10.222-4.262-.121-.482-.323-1.273-.579-2.271,2.353-.294,4.364-.964,5.164-2.343l1.514,4.668.106.333h.116c1,9.46,3.259,29.1,5.068,31.737,2.411,3.486,5.183,18.593,5.183,18.593l5.183,30.99s2,17.841,3.192,19.769a2.241,2.241,0,0,0,1.311.68,18.992,18.992,0,0,1-2.893,5.9c-2.411,2.71-5.584,8.134-8.375,7.749s-3.587,5.425,1.6,6.2c2.869.429,7.445-.092,10.96-.641,0,1.553,1.08,3.337,3.795,3.742,5.183.776,15.95-1.548,15.95-1.548s9.161-3.857,9.571-6.587c.289-1.977-1.114-9.914-1.895-14.075,1.446-2.319-.1-22.335-.1-22.335l-2.792-38.348s1.6-21.3,0-25.179c-1-2.411-1.369-13.5-1.509-21.433l1.929.125a3.55,3.55,0,0,0,.3-.419l.482.034s2.411-2.71.4-6.972c-1.48-3.168-1.2-17.469-.964-24.591h0l.284-3.375a.964.964,0,0,0,.236-.366,35.368,35.368,0,0,0,10.767-3.26,10.925,10.925,0,0,0,2.826-1.717c2-1.929.8-13.559-3.192-30.99s-7.575-15.883-7.575-15.883-9.571-.776-13.959-6.587-7.334-5.733-7.334-5.733h0c-.111-.762-.188-1.48-.241-2.151,0-.251-.039-.482-.053-.733a12.749,12.749,0,0,0,3.317-5.029,24.933,24.933,0,0,0,2.859-1.249,3.4,3.4,0,0,0,.593-.55,4.875,4.875,0,0,0,1.538-3.033,12.4,12.4,0,0,0-.178-3.8,9.219,9.219,0,0,0-6.085-8.351q-6.326-3.322-12.686-6.577a7,7,0,0,0-2.715-.964c-1.7-.1-3.221,1.066-4.59,2.17a19.6,19.6,0,0,0-1.567,1.374,8.8,8.8,0,0,0-1.152,1.239,11.885,11.885,0,0,0-1.577,8.867,1.215,1.215,0,0,0,1.287,1.085,12.431,12.431,0,0,0-1.326,5.593,12.682,12.682,0,0,0,5.887,10.651c0,.27,0,.535.024.791a28.285,28.285,0,0,1-.1,2.965s-10.608,5.733-11.8,8.443-5.584,4.648-5.584,4.648-8.375,4.262-8.375,19.369l-4.388,21.3-.8,40.672s.55-.482,1.447-1.167c-.029.27-.053.55-.077.834a45.953,45.953,0,0,0-.121,4.672ZM673.9,564.045c-.164.622-.405,1.447-.709,2.411-.135-.8-.27-1.591-.405-2.343C673.134,564.079,673.506,564.06,673.9,564.045Z" transform="translate(-341.434 -179.747)"/><path class="t" d="M687.622,809.272s-1.538,6.915-3.857,9.6-5.357,8.067-8.038,7.681-3.457,5.376,1.538,6.143,15.338-1.533,15.338-1.533,8.834-3.857,9.214-6.529-2.3-16.515-2.3-16.515Z" transform="translate(-369.64 -429.969)"/><path class="u" d="M687.622,809.272s-1.538,6.915-3.857,9.6-5.357,8.067-8.038,7.681-3.457,5.376,1.538,6.143,15.338-1.533,15.338-1.533,8.834-3.857,9.214-6.529-2.3-16.515-2.3-16.515Z" transform="translate(-369.64 -429.969)"/><path class="t" d="M717.084,815.637s-1.538,6.914-3.857,9.6-5.371,8.067-8.048,7.681-3.457,5.376,1.538,6.143,15.362-1.538,15.362-1.538,8.834-3.857,9.214-6.529-2.3-16.515-2.3-16.515Z" transform="translate(-384.892 -433.263)"/><path class="v" d="M659.66,598.67s3.071,33.024,5.376,36.482,4.991,18.434,4.991,18.434l4.991,30.72s1.929,17.667,3.071,19.586,15.4,1.095,15.4,1.095l-8.862-101.711Z" transform="translate(-362.416 -321.512)"/><path class="u" d="M659.66,598.67s3.071,33.024,5.376,36.482,4.991,18.434,4.991,18.434l4.991,30.72s1.929,17.667,3.071,19.586,15.4,1.095,15.4,1.095l-8.862-101.711Z" transform="translate(-362.416 -321.512)"/><path class="v" d="M646.92,566l1,3.187,5.424,17.219.106.328h.029c.728.164,16.1,3.7,19.417,4.783a4.683,4.683,0,0,1,.526.2c1.538.767,3.457,28.415,3.457,28.415s1.152,26.115,1.929,28.034,3.857,41.467,5.762,40.32,15.743,0,15.743,0c1.538-1.538,0-22.272,0-22.272l-2.729-38.01s1.538-21.119,0-24.962-1.538-29.567-1.538-29.567l-31.433-4.913-3.038-.482Z" transform="translate(-355.819 -304.595)"/><path class="w" d="M649,571.455l5.424,17.219.13.338c.728.164,16.1,3.7,19.417,4.783h.333l-8.588-22.768-.246-.656-2.792.178Z" transform="translate(-356.896 -306.857)"/><path class="g" d="M685.848,406.73s-14.21,15.362-23.043,2.686l-8.448,5.762,1.538,8.833-5,66.816s13.057-.386,22.272,2.686a14.292,14.292,0,0,0,14.977-3.457l-1.519-58.749,3.457-18.048Z" transform="translate(-357.88 -222.121)"/><path class="t" d="M685.848,404.34s-14.21,15.362-23.043,2.686l-8.448,5.762,1.538,8.833-5,66.816s13.057-.386,22.272,2.686a14.292,14.292,0,0,0,14.977-3.457l-1.519-58.749,3.457-18.048Z" transform="translate(-357.88 -220.884)"/><g transform="translate(295.122 250.286)"><path class="x" d="M616.658,522.36v2.421h-.771V523.17h-2.821v1.611h-.776v-2.416l4.368,0" transform="translate(-612.179 -520.778)"/><path class="x" d="M659.05,543.74h-2.98a1.1,1.1,0,0,1-.81-.8h4.6a1.1,1.1,0,0,1-.81.8" transform="translate(-655.26 -542.94)"/><g transform="translate(25.71 0.029)"><path class="x" d="M713.6,543a1.114,1.114,0,0,1-.805.8h-1.254l-.063.024v3.163h-.772V543.82l-.072-.024h-1.254a1.128,1.128,0,0,1-.805-.8H713.6" transform="translate(-708.58 -543)"/></g></g><path class="y" d="M642.668,569.2s0,9.986-2.3,14.21-15.743,1.929-15.743,1.929l2.686-14.21Z" transform="translate(-344.271 -306.252)"/><path class="z" d="M626.133,597.707c2.025,1.929,10.42-1.929,9.841-4.224-.405-1.625-1.823-7.44-2.628-10.738l-.559-2.319s-4.918-1.538-6.654,0c-.632.559-1.075,2.763-1.282,5.424C624.494,590.474,624.855,596.482,626.133,597.707Z" transform="translate(-344.324 -311.711)"/><path class="z" d="M666,390.676l13.438,10.367s19.967-1.152,14.977-10.753a35.8,35.8,0,0,1-3.857-13.569,28.365,28.365,0,0,1,0-5.251s-18.434-16.876-16.129,2.3a43.509,43.509,0,0,1,.318,4.436C675.022,392.61,666,390.676,666,390.676Z" transform="translate(-365.699 -200.31)"/><path class="g" d="M683.346,373.777a43.51,43.51,0,0,1,.318,4.436,12.585,12.585,0,0,0,6.977,2.093c3.438,0,5.969-3.346,8.255-5.569-.256-3.187.574-3.264.574-3.264S681.041,354.576,683.346,373.777Z" transform="translate(-374.578 -200.306)"/><circle class="z" cx="12.672" cy="12.672" r="12.672" transform="translate(303.392 153.889)"/><path class="g" d="M706.31,394.38s2.112.193,6.336,5.95,13.438,6.529,13.438,6.529,3.457-1.538,7.3,15.743,4.991,28.8,3.071,30.72-9.6,4.614-13.458,4.614c0,0-1.152,24.191.767,28.415s-.386,6.914-.386,6.914L706.5,492.113s-5.762-7.3-6.914-19.967-4.991-48.772-3.071-53,10.367-14.977,9.986-16.129S706.31,394.38,706.31,394.38Z" transform="translate(-381.225 -215.726)"/><path class="y" d="M707.188,394.14s2.84-.077,7.064,5.685,13.434,6.529,13.434,6.529,3.457-1.538,7.3,15.743,4.991,28.8,3.072,30.72-9.6,4.61-13.438,4.61c0,0-1.152,24.191.767,28.415s-.386,6.914-.386,6.914L708.119,491.6s-5.762-7.3-6.914-19.967-5-48.768-3.081-52.972,10.367-14.976,9.986-16.129S707.188,394.14,707.188,394.14Z" transform="translate(-382.06 -215.602)"/><path class="g" d="M625,585.84c1.837-1.4,5.3-3.587,8.5-3.105l-.559-2.319s-4.918-1.538-6.654,0C625.641,580.975,625.2,583.174,625,585.84Z" transform="translate(-344.468 -311.705)"/><path class="g" d="M653.278,399.16s-9.793,6.336-10.945,9.026-5.376,4.61-5.376,4.61-8.062,4.224-8.062,19.2l-4.224,21.119L643.87,480s2.3-26.881,3.457-33.41,2.686-18.8,2.686-18.8,5.762-7.3,4.99-9.214S653.278,399.16,653.278,399.16Z" transform="translate(-344.297 -218.201)"/><path class="y" d="M652.009,398.92s-10.213,5.685-11.36,8.371-5.376,4.61-5.376,4.61-8.062,4.224-8.062,19.2l-4.224,21.119-.767,40.32s6.914-6.529,11.9-3.457,8.062-9.986,8.062-9.986,2.3-26.882,3.457-33.41,2.686-18.8,2.686-18.8,5.762-7.3,4.991-9.214S652.009,398.92,652.009,398.92Z" transform="translate(-343.029 -218.077)"/><path class="g" d="M673.714,332.643a12.536,12.536,0,0,1,2.237-2.208c1.321-1.1,2.782-2.247,4.422-2.151a6.615,6.615,0,0,1,2.613.935q6.124,3.226,12.214,6.519a11.358,11.358,0,0,1,4.094,3.125,12.045,12.045,0,0,1,1.765,5.159,12.646,12.646,0,0,1,.174,3.771,4.731,4.731,0,0,1-1.668,3.168c-1.095.8-2.594.8-3.51,1.842a10.264,10.264,0,0,0-1.138,2.179c-.376.733-1.027,1.447-1.77,1.316a1.858,1.858,0,0,1-1.3-1.712,10.4,10.4,0,0,1,.14-2.411,5.709,5.709,0,0,0-.878-4.055c-.579-.733-1.408-1.177-1.967-1.929-1.341-1.813-.728-4.822-2.2-6.524a3.486,3.486,0,0,0-3.375-.964,14.429,14.429,0,0,0-3.375,1.447,25.069,25.069,0,0,1-4.624,1.784c-1.341.366-2.893,1.244-3.351-.54A11.888,11.888,0,0,1,673.714,332.643Z" transform="translate(-368.774 -181.497)"/><path class="aa" d="M674.512,331.853a12.537,12.537,0,0,1,2.237-2.208c1.321-1.1,2.782-2.247,4.422-2.151a6.616,6.616,0,0,1,2.613.935c4.079,2.151,7.469.116,12.214,6.519,1.013,1.369,3.047,1.668,4.094,3.125a12.046,12.046,0,0,1,1.765,5.159A12.648,12.648,0,0,1,702.03,347a4.73,4.73,0,0,1-1.668,3.168c-1.095.8-2.594.8-3.51,1.842a10.259,10.259,0,0,0-1.138,2.179c-.376.733-1.027,1.447-1.77,1.316a1.858,1.858,0,0,1-1.3-1.712,10.392,10.392,0,0,1,.14-2.411,5.709,5.709,0,0,0-.878-4.055c-.579-.733-1.408-1.177-1.967-1.929-1.34-1.813-.728-4.822-2.2-6.524a3.486,3.486,0,0,0-3.375-.964,14.43,14.43,0,0,0-3.375,1.447,25.076,25.076,0,0,1-4.624,1.784c-1.341.366-2.893,1.244-3.351-.54A11.861,11.861,0,0,1,674.512,331.853Z" transform="translate(-369.186 -181.088)"/><path class="g" d="M740.5,458.09s5.121,13.057,1.278,18.434L733.33,474.6s7.681,2.3,6.529-2.3S740.5,458.09,740.5,458.09Z" transform="translate(-400.564 -248.716)"/><path class="g" d="M738.74,523.348s-11.138.767-14.21-1.538a29.412,29.412,0,0,0,13.863,5.762Z" transform="translate(-396.007 -281.712)"/><path class="g" d="M648.7,474s-5.762,17.667-5.376,20.353,1.152,32.258,1.152,32.258l1.152-.386-.386-32.258Z" transform="translate(-353.945 -256.955)"/><path class="ab" d="M466.116,278.485,334.481,172.406A8.236,8.236,0,0,0,328.647,170h-5.593A71.362,71.362,0,1,0,310.7,182.353v5.588a8.236,8.236,0,0,0,2.411,5.834L444.741,299.856a8.2,8.2,0,0,0,11.64,0l9.7-9.692A8.279,8.279,0,0,0,466.116,278.485ZM266.749,170a18.2,18.2,0,1,1,0,.01Z" transform="translate(-122.028 -39.848)"/><path class="d" d="M468.116,276.485,336.481,170.406A8.236,8.236,0,0,0,330.647,168h-5.593A71.362,71.362,0,1,0,312.7,180.353v5.588a8.236,8.236,0,0,0,2.411,5.834L446.741,297.856a8.2,8.2,0,0,0,11.64,0l9.7-9.692a8.279,8.279,0,0,0,.034-11.678ZM268.749,168a18.2,18.2,0,1,1,0,.01Z" transform="translate(-123.064 -38.813)"/><path class="z" d="M720.5,483.6s-19.215-22.036-16.515-6.914c1.929,10.753,9.214,16.515,12.672,17.667S720.5,483.6,720.5,483.6Z" transform="translate(-385.232 -255.602)"/><path class="y" d="M734.462,454.51s.386,14.21,2.3,16.129-1.152,4.224-1.152,4.224l-7.681-1.929s1.929,12.672-6.143,11.138c0,0,5.376,4.991,10.753,5.762s4.991-1.152,4.991-1.152l8.062-9.6Z" transform="translate(-394.588 -246.863)"/><path class="y" d="M704.62,494.183l7.792-1.712-1.042-3.592-4.822-1.929-6.268,2.893Z" transform="translate(-362.62 -252.156)"/><path class="j" d="M280.78,164.6a32.634,32.634,0,0,0,6.548,19.663c.429.574.878,1.128,1.345,1.673.251.294.511.583.776.868q.2.222.405.434a32.172,32.172,0,0,0,3.5,3.178l.087.063a32.648,32.648,0,0,0,9.711,5.217l.439.14c.27.092.55.174.825.251l.111.034c.14.039.28.082.424.116a32.649,32.649,0,0,0,8.6,1.143c.482,0,.988,0,1.48-.034a32.422,32.422,0,0,0,7.6-1.244h.048c.458-.135.911-.275,1.36-.429h.048l.41-.145a31.788,31.788,0,0,0,4.533-2.006l.092-.048c.159-.087.318-.174.482-.265a32.7,32.7,0,0,0,5.95-4.282l.159-.149a30.632,30.632,0,0,0,2.8-2.893l.1-.121c.082-.092.159-.183.236-.28.212-.251.415-.511.617-.771A32.788,32.788,0,1,0,280.78,164.6Z" transform="translate(-166.224 -79.764)"/><path class="ac" d="M299.189,183s7.112-.6,10.372-5.126c3.178-4.4,5.338-4.455,5.444-4.455h0c.082-.588.14-1.148.178-1.668v-.072a.965.965,0,0,1-.448.2c-.636.1-1.2-.506-1.514-1.148a8.953,8.953,0,0,0-.964-1.9c-.786-.907-2.073-.911-3.009-1.6a4.137,4.137,0,0,1-1.447-2.758,7.586,7.586,0,0,1-.058-1.205,13.346,13.346,0,0,1,.2-2.57,10.586,10.586,0,0,1,1.514-4.489c.892-1.258,2.638-1.528,3.505-2.719,4.065-5.574,6.963-3.8,10.458-5.675a5.6,5.6,0,0,1,2.237-.815c1.4-.082,2.657.921,3.785,1.876a10.809,10.809,0,0,1,1.929,1.929,10.464,10.464,0,0,1,1.524,5.854,8.765,8.765,0,0,1-.222,2.29c-.28,1.109-1.037,1.037-1.866.786a10.02,10.02,0,0,1-3.4,12.575v.506a.885.885,0,0,0,0,.111,22.835,22.835,0,0,0,.077,2.3c.082.043,7.879,4.465,8.761,6.562s4.152,3.616,4.152,3.616,3.592,1.929,5.3,7.985l-.1.121a30.928,30.928,0,0,1-2.8,2.951l-.159.154a32.724,32.724,0,0,1-5.95,4.34c-.154.092-.313.183-.482.27l-.092.048a31.526,31.526,0,0,1-4.532,2.04l-.41.149h-.048c-.448.159-.9.3-1.36.434h-.048a31.93,31.93,0,0,1-7.6,1.263c-.482.024-.964.034-1.48.034a32.136,32.136,0,0,1-8.573-1.114c-.145-.034-.285-.077-.424-.116l-.111-.034c-.275-.077-.555-.164-.825-.256l-.439-.14a32.51,32.51,0,0,1-9.726-5.309l-.087-.063a32.365,32.365,0,0,1-3.5-3.231q-.207-.212-.405-.444c-.265-.289-.526-.583-.776-.882-.482-.554-.916-1.119-1.345-1.7C297,182.006,299.189,183,299.189,183Z" transform="translate(-173.287 -87.622)"/><path class="z" d="M342.246,208.213l10.372-8s-6.948,1.49-6.751-9.615a.862.862,0,0,1,0-.111,28.412,28.412,0,0,1,.241-3.313c1.779-14.817-12.445-1.779-12.445-1.779a21.218,21.218,0,0,1,0,3.944v.106a27.552,27.552,0,0,1-2.961,10.468C326.84,207.321,342.246,208.213,342.246,208.213Z" transform="translate(-191.753 -104.765)"/><path class="g" d="M338.826,187.282c1.76,1.712,2.835,4.822,5.482,4.822a9.716,9.716,0,0,0,5.386-1.615,28.411,28.411,0,0,1,.241-3.313c1.779-14.817-12.445-1.779-12.445-1.779S339.014,184.871,338.826,187.282Z" transform="translate(-195.59 -104.765)"/><circle class="z" cx="9.779" cy="9.779" r="9.779" transform="translate(138.94 67.3)"/><path class="g" d="M345.7,153.736a10.727,10.727,0,0,0-1.929-1.89c-1.128-.94-2.382-1.929-3.785-1.842a5.665,5.665,0,0,0-2.237.8c-3.5,1.842-6.394.1-10.458,5.579-.868,1.172-2.609,1.447-3.505,2.676a10.257,10.257,0,0,0-1.514,4.417,10.831,10.831,0,0,0-.149,3.231,4.046,4.046,0,0,0,1.447,2.71c.935.68,2.223.685,3.009,1.577a8.751,8.751,0,0,1,.964,1.866c.318.627.878,1.22,1.514,1.128a1.561,1.561,0,0,0,1.109-1.447,8.9,8.9,0,0,0-.121-2.059,4.925,4.925,0,0,1,.752-3.472c.482-.632,1.205-1.008,1.683-1.649,1.148-1.548.627-4.147,1.885-5.584a2.985,2.985,0,0,1,2.893-.805,12.329,12.329,0,0,1,2.893,1.244,21.465,21.465,0,0,0,3.959,1.529c1.148.313,2.478,1.066,2.869-.482A10.191,10.191,0,0,0,345.7,153.736Z" transform="translate(-187.599 -89.18)"/><path class="aa" d="M345.7,152.736a10.728,10.728,0,0,0-1.929-1.89c-1.128-.94-2.382-1.929-3.785-1.842a5.665,5.665,0,0,0-2.237.8c-3.5,1.842-6.394.1-10.458,5.579-.868,1.172-2.609,1.447-3.505,2.676a10.257,10.257,0,0,0-1.514,4.417,10.831,10.831,0,0,0-.149,3.231,4.046,4.046,0,0,0,1.447,2.71c.935.68,2.223.685,3.009,1.577a8.752,8.752,0,0,1,.964,1.866c.318.627.878,1.22,1.514,1.128a1.561,1.561,0,0,0,1.109-1.447,8.9,8.9,0,0,0-.121-2.059,4.925,4.925,0,0,1,.752-3.472c.482-.632,1.205-1.008,1.683-1.649,1.148-1.548.627-4.147,1.885-5.584a2.985,2.985,0,0,1,2.893-.805,12.33,12.33,0,0,1,2.893,1.244,21.465,21.465,0,0,0,3.959,1.529c1.148.313,2.478,1.066,2.869-.482A10.191,10.191,0,0,0,345.7,152.736Z" transform="translate(-187.599 -88.663)"/><path class="g" d="M328.5,228.719l-.193,7.4a32.648,32.648,0,0,0,8.6,1.143c.482,0,.988,0,1.48-.034a32.423,32.423,0,0,0,7.6-1.244h.048c.458-.135.911-.275,1.36-.429h.048l.41-.145a31.783,31.783,0,0,0,4.533-2.006l.092-.048c.159-.087.318-.174.482-.265l-.747-9.976,1.191-6.842-6.519-4.441a11.485,11.485,0,0,1-1.225,1.485,8.2,8.2,0,0,1-2.228,1.649c-4.677,2.3-10-1.36-12.648-3.626l-.6-.535c-.685-.622-1.075-1.046-1.075-1.046l-3.26,5.034Z" transform="translate(-189.562 -120.126)"/><path class="t" d="M328.5,229.719l-.193,7.4a32.648,32.648,0,0,0,8.6,1.143c.482,0,.988,0,1.48-.034a32.423,32.423,0,0,0,7.6-1.244h.048c.458-.135.911-.275,1.36-.429h.048l.41-.145a31.786,31.786,0,0,0,4.533-2.006l.092-.048c.159-.087.318-.174.482-.265l-.747-9.976,1.191-6.842-6.519-4.441a11.481,11.481,0,0,1-1.225,1.485,8.2,8.2,0,0,1-2.228,1.649c-4.677,2.3-10-1.36-12.648-3.626l-.6-.535c-.685-.622-1.075-1.046-1.075-1.046l-3.26,5.034Z" transform="translate(-189.562 -120.644)"/><path class="ad" d="M294.36,221.053c.429.574.878,1.128,1.345,1.673.251.294.511.583.776.868q.2.222.4.434a32.174,32.174,0,0,0,3.5,3.178l.087.063a32.649,32.649,0,0,0,9.711,5.217l.439.14c.27.092.55.174.824.251l.111.034c.14.039.28.082.424.116a32.65,32.65,0,0,0,8.6,1.143c.482,0,.988,0,1.48-.034.376-6.153.482-11.09-.106-12.358a19.893,19.893,0,0,0-1.191-2.131c-2.382-3.828-6.751-9.586-6.514-10.314a7.538,7.538,0,0,0,.2-1.085c.256-1.9.511-5.376.511-5.376h0c-.106,0-2.266.053-5.444,4.383-3.26,4.446-10.372,5.039-10.372,5.039S296.969,211.327,294.36,221.053Z" transform="translate(-173.256 -116.558)"/><path class="ad" d="M364.656,228.174s.357,2.84.825,6.235h.048l.41-.145a31.787,31.787,0,0,0,4.532-2.006l.092-.048c.159-.087.318-.174.482-.265a32.7,32.7,0,0,0,5.95-4.282l.159-.149a30.631,30.631,0,0,0,2.8-2.893l.1-.121c-1.721-5.974-5.3-7.855-5.3-7.855s-3.26-1.485-4.152-3.558-8.766-6.456-8.766-6.456v.034c0,.371-.125,3.771-.313,7.189-.121,2.223-.27,4.455-.444,5.873a6.858,6.858,0,0,1-.251,1.36C360.215,222.547,364.656,228.174,364.656,228.174Z" transform="translate(-207.644 -118.505)"/></g></svg>